<svg xmlns="http://www.w3.org/2000/svg" xmlns:xlink="http://www.w3.org/1999/xlink" width="500" zoomAndPan="magnify" viewBox="0 0 375 374.999991" height="500" preserveAspectRatio="xMidYMid meet" version="1.0"><defs><clipPath id="18e3fcaf7f"><path d="M 8.019531 73.753906 L 236 73.753906 L 236 301 L 8.019531 301 Z M 8.019531 73.753906 " clip-rule="nonzero"/></clipPath><clipPath id="bfc503e2bb"><path d="M 177 73.753906 L 367.269531 73.753906 L 367.269531 301 L 177 301 Z M 177 73.753906 " clip-rule="nonzero"/></clipPath></defs><path fill="#dff6ff" d="M 78.742188 306.566406 L 81.015625 305.003906 L 80.070312 304.933594 Z M 78.742188 306.566406 " fill-opacity="1" fill-rule="nonzero"/><path fill="#dff6ff" d="M 84.230469 304.804688 C 82.570312 305.683594 80.949219 306.710938 80.371094 305.949219 C 76.917969 310.921875 85.011719 303.78125 81.585938 308.789062 L 81.3125 309.015625 C 83.464844 307.910156 81.738281 311.566406 83.496094 310.929688 C 86.007812 309.597656 88.183594 307.851562 90.019531 305.683594 L 86.722656 308.082031 C 88.730469 305.429688 88.09375 305.167969 86.953125 305.601562 L 87.59375 305.886719 C 87.175781 306.113281 85.90625 307.800781 85.484375 308.027344 C 85.816406 306.039062 82.613281 309.355469 84.25 305.957031 L 84.523438 305.726562 L 82.53125 306.847656 C 82.972656 306.0625 83.539062 305.382812 84.230469 304.804688 Z M 84.230469 304.804688 " fill-opacity="1" fill-rule="nonzero"/><path fill="#dff6ff" d="M 84.230469 304.804688 L 84.375 304.726562 C 84.484375 304.597656 84.398438 304.65625 84.230469 304.804688 Z M 84.230469 304.804688 " fill-opacity="1" fill-rule="nonzero"/><path fill="#dff6ff" d="M 110.527344 333.085938 L 110.992188 332.25 C 110.78125 332.496094 110.628906 332.777344 110.527344 333.085938 Z M 110.527344 333.085938 " fill-opacity="1" fill-rule="nonzero"/><path fill="#dff6ff" d="M 106.480469 316.925781 L 106.480469 317.050781 C 107.21875 315.945312 107 316.210938 106.480469 316.925781 Z M 106.480469 316.925781 " fill-opacity="1" fill-rule="nonzero"/><path fill="#dff6ff" d="M 83.746094 311.445312 C 83.746094 311.746094 84.019531 311.667969 84.410156 311.410156 C 84.183594 311.320312 83.960938 311.332031 83.746094 311.445312 Z M 83.746094 311.445312 " fill-opacity="1" fill-rule="nonzero"/><path fill="#dff6ff" d="M 70.21875 80.070312 L 68.585938 78.742188 L 70.148438 81.015625 Z M 70.21875 80.070312 " fill-opacity="1" fill-rule="nonzero"/><path fill="#dff6ff" d="M 70.347656 84.230469 C 69.46875 82.570312 68.441406 80.949219 69.203125 80.371094 C 64.230469 76.917969 71.371094 85.011719 66.363281 81.585938 L 66.136719 81.3125 C 67.242188 83.464844 63.585938 81.738281 64.222656 83.496094 C 65.550781 86.007812 67.300781 88.183594 69.46875 90.019531 L 67.070312 86.722656 C 69.722656 88.730469 69.980469 88.09375 69.550781 86.953125 L 69.265625 87.59375 C 69.039062 87.175781 67.347656 85.90625 67.125 85.484375 C 69.113281 85.816406 65.796875 82.613281 69.195312 84.25 L 69.425781 84.523438 L 68.304688 82.53125 C 69.085938 82.972656 69.769531 83.539062 70.347656 84.230469 Z M 70.347656 84.230469 " fill-opacity="1" fill-rule="nonzero"/><path fill="#dff6ff" d="M 70.347656 84.230469 L 70.425781 84.375 C 70.554688 84.484375 70.496094 84.398438 70.347656 84.230469 Z M 70.347656 84.230469 " fill-opacity="1" fill-rule="nonzero"/><path fill="#dff6ff" d="M 42.066406 110.527344 L 42.902344 110.992188 C 42.652344 110.78125 42.375 110.628906 42.066406 110.527344 Z M 42.066406 110.527344 " fill-opacity="1" fill-rule="nonzero"/><path fill="#dff6ff" d="M 58.226562 106.480469 L 58.101562 106.480469 C 59.207031 107.21875 58.941406 107 58.226562 106.480469 Z M 58.226562 106.480469 " fill-opacity="1" fill-rule="nonzero"/><path fill="#dff6ff" d="M 63.703125 83.746094 C 63.40625 83.746094 63.484375 84.019531 63.742188 84.410156 C 63.832031 84.183594 63.820312 83.960938 63.703125 83.746094 Z M 63.703125 83.746094 " fill-opacity="1" fill-rule="nonzero"/><path fill="#dff6ff" d="M 27.359375 182.5 C 26.265625 182.753906 25.160156 182.941406 24.042969 183.0625 C 26.980469 183.597656 26.488281 184.152344 26 184.722656 L 25.375 184.722656 C 24.886719 185.277344 27.90625 185.929688 28.21875 186.710938 L 23.65625 186.875 C 24.300781 187.285156 27.824219 187.382812 26.871094 187.769531 C 26.464844 187.867188 26.066406 187.832031 25.683594 187.671875 C 26.59375 188.054688 25.429688 188.570312 24.308594 188.859375 C 27.589844 189.445312 26.382812 189.898438 29.945312 190.417969 C 25.933594 190.878906 28.15625 189.734375 24.394531 190.128906 C 22.25 190.964844 24.496094 191.820312 26.476562 192.742188 C 25.628906 192.777344 24.777344 192.757812 23.929688 192.679688 C 28.707031 193.519531 33.515625 194.039062 38.363281 194.246094 C 38.359375 199.835938 38.6875 205.402344 39.339844 210.953125 C 39.992188 216.5 40.96875 221.992188 42.269531 227.429688 C 43.570312 232.863281 45.1875 238.203125 47.117188 243.445312 C 49.042969 248.691406 51.273438 253.800781 53.804688 258.785156 C 56.335938 263.765625 59.152344 268.582031 62.25 273.230469 C 65.347656 277.882812 68.707031 282.332031 72.332031 286.585938 C 75.953125 290.84375 79.8125 294.867188 83.910156 298.667969 C 88.007812 302.46875 92.3125 306.015625 96.828125 309.308594 C 95.886719 310.003906 94.746094 310.9375 94.226562 310.820312 L 94.988281 310.0625 L 94.371094 309.351562 L 94.621094 309.101562 L 92.730469 310.367188 L 93.695312 309.128906 C 93.296875 309.375 92.667969 310.125 92.371094 310.125 L 93.609375 308.632812 C 91.605469 310.875 89.898438 311.617188 89.535156 311.34375 L 90.007812 310.609375 L 86.753906 313.039062 C 87.613281 311.046875 90.179688 309.863281 88.410156 310.324219 L 91.097656 307.398438 C 89.535156 308.128906 90.765625 306.402344 89.515625 307.136719 C 88.4375 308.84375 88.90625 308.855469 87.582031 310.058594 C 89.957031 306.15625 86.089844 310.359375 84.4375 311.402344 C 84.730469 311.527344 84.867188 311.6875 86.480469 310.039062 C 86.6875 310.289062 85.242188 311.742188 85.289062 312 L 87.046875 310.550781 L 85.441406 312.746094 L 87.398438 311.554688 C 85.382812 314 87.710938 312.316406 85.386719 314.75 C 86.652344 314.035156 85.503906 316.023438 87.867188 313.8125 C 86.980469 315.558594 85.972656 315.273438 86.085938 315.777344 C 86.707031 315.628906 87.332031 315.597656 87.960938 315.679688 C 88.59375 315.765625 89.1875 315.957031 89.746094 316.261719 C 90.304688 316.566406 90.792969 316.960938 91.207031 317.445312 C 91.621094 317.929688 91.933594 318.46875 92.144531 319.070312 L 91.148438 320.097656 L 93.824219 317.519531 C 92.660156 319.804688 92.050781 323.40625 95.207031 319.738281 C 94.980469 320.125 94.703125 320.472656 94.375 320.785156 C 95.332031 320.726562 94.625 324.277344 95.832031 324.484375 C 98.964844 320.503906 95.523438 328.054688 99.574219 322.496094 L 98.628906 323.570312 C 99.761719 321.714844 101.101562 320.019531 102.644531 318.484375 C 100.511719 322.429688 100.832031 321.390625 98.941406 325.074219 L 99.375 323.527344 L 97.488281 326.695312 C 103.671875 319.402344 97.46875 331.75 101.816406 326.324219 C 101.585938 326.605469 101.285156 327.128906 101.058594 327.402344 C 100.488281 329.488281 103.238281 325.679688 104.226562 324.804688 C 103.476562 326.09375 102.589844 327.28125 101.574219 328.375 C 101.753906 330.140625 105.703125 326.691406 105.242188 329.769531 C 106.804688 327.78125 106.738281 326.785156 108.011719 325.347656 C 107.777344 326.707031 107.1875 327.882812 106.234375 328.878906 C 104.890625 333.382812 110.460938 327.742188 109.789062 332.175781 C 111.742188 330.085938 111.863281 328.796875 113.726562 327.703125 C 112.675781 329.160156 111.25 333.238281 110.519531 333.097656 L 109.5625 334.785156 C 110.46875 335.664062 111.664062 337.003906 114.625 332.339844 C 112.90625 336.003906 114.480469 333.136719 113.960938 335.292969 C 114.320312 334.960938 114.207031 334.734375 114.253906 334.460938 C 116.136719 331.53125 114.792969 334.875 115.308594 334.519531 L 114.910156 335.117188 L 116.742188 333.207031 C 116.609375 334.0625 116.375 334.882812 116.027344 335.675781 L 117.203125 333.113281 C 117.625 333.285156 115.90625 336.476562 116.730469 336.054688 L 117.496094 334.085938 C 117.28125 335.4375 119.011719 332.992188 117.828125 335.820312 C 117.59375 336.382812 117.628906 336.121094 117.476562 336.152344 C 116.269531 340.289062 119.40625 335.457031 119.257812 337.550781 L 120.917969 333.292969 C 122.105469 332.226562 120.917969 334.3125 120.273438 335.769531 C 120.707031 335.914062 120.21875 337.324219 120.585938 338.019531 C 121.148438 337.183594 121.613281 336.292969 121.976562 335.351562 L 122.121094 336.609375 L 120.792969 338.75 C 124.199219 332.980469 122.734375 340.382812 125.574219 334.949219 C 125.433594 336.277344 124.273438 337.386719 124.1875 338.183594 C 124.1875 341.3125 128.089844 334.984375 127.765625 338.46875 C 128.097656 342.035156 130.792969 339.722656 131.714844 342.285156 L 132.074219 341.109375 L 132.921875 342.414062 C 134.078125 339.898438 134.472656 341.363281 135.90625 338.464844 C 135.578125 339.378906 135.246094 340.835938 134.914062 341.476562 C 135.519531 341.265625 136.433594 340.148438 136.238281 341.804688 L 135.773438 342.765625 C 136.632812 343.839844 138.164062 344.351562 139.367188 342.261719 C 139.8125 342.085938 139.21875 344.199219 138.917969 345.664062 C 139.53125 345.964844 140.285156 344.875 141.308594 343.121094 C 141.324219 343.859375 141.285156 344.59375 141.191406 345.328125 L 142.1875 342.496094 C 142.347656 342.972656 141.632812 344.890625 141.648438 345.699219 C 143.535156 342.492188 143.894531 345.910156 144.667969 345.859375 L 144.914062 344.390625 C 145.472656 343.320312 145.558594 345.476562 144.863281 346.867188 C 145.890625 348.910156 147.988281 342.75 149.660156 343.910156 C 148.832031 349.289062 151.652344 342.710938 150.757812 348.714844 C 151.855469 347.359375 151.945312 349.816406 153.144531 346.433594 C 153.050781 347.039062 153.074219 347.304688 152.929688 347.382812 C 152.84375 349.660156 154.230469 348.144531 155.285156 346.769531 L 155.027344 348.585938 C 155.972656 344.722656 157.164062 346.089844 158.046875 342.214844 C 157.949219 343.015625 157.742188 343.789062 157.425781 344.535156 C 157.273438 348.3125 158.417969 342.878906 158.816406 343.800781 C 158.636719 344.753906 158.628906 345.894531 158.414062 346.585938 C 159.644531 351.101562 163.191406 344.179688 165.164062 347.382812 C 165.796875 347.609375 165.355469 343.183594 166.160156 343.582031 C 166.207031 345.613281 165.347656 347.558594 165.804688 348.488281 C 166.4375 346.066406 166.527344 346.578125 167.03125 346.851562 C 166.972656 347.910156 166.75 348.929688 166.367188 349.917969 C 166.53125 351.574219 167.941406 346.875 168.277344 350.210938 C 168.324219 349.324219 168.457031 348.449219 168.683594 347.59375 C 169.824219 344.183594 170.480469 351.214844 170.707031 349.289062 C 170.914062 348.988281 170.945312 348.664062 170.8125 348.324219 C 171.140625 348.421875 171.570312 349.035156 171.371094 350.976562 C 171.492188 349.980469 171.746094 349.015625 172.128906 348.082031 L 171.859375 350.367188 C 172.039062 349.886719 172.289062 348.453125 172.453125 348.183594 L 172.296875 346.773438 C 172.570312 348.703125 173.53125 344.15625 173.289062 348.539062 L 173.160156 348.628906 L 173.773438 350.644531 C 174.140625 348.875 174.496094 347.113281 174.9375 347.722656 C 174.9375 352.277344 176.113281 348.738281 176.691406 349.234375 L 176.625 350.820312 C 177.15625 348.613281 178.335938 349.636719 178.136719 348.828125 C 178.59375 348.828125 179.199219 349.941406 178.953125 351.351562 C 179.34375 350.460938 180.140625 350.527344 180.347656 347.882812 L 181.078125 351.722656 C 181.496094 346.085938 182.460938 353.757812 182.503906 347.773438 C 182.757812 348.871094 182.945312 349.972656 183.066406 351.089844 C 183.601562 348.152344 184.15625 348.648438 184.722656 349.132812 L 184.722656 349.757812 C 185.28125 350.25 185.933594 347.226562 186.714844 346.917969 L 186.878906 351.480469 C 187.289062 350.835938 187.386719 347.3125 187.773438 348.261719 C 187.871094 348.671875 187.835938 349.066406 187.675781 349.453125 C 188.054688 348.542969 188.574219 349.703125 188.863281 350.824219 C 189.449219 347.542969 189.902344 348.75 190.421875 345.1875 C 190.882812 349.199219 189.738281 346.980469 190.132812 350.738281 C 190.96875 352.886719 191.824219 350.640625 192.746094 348.65625 C 192.78125 349.507812 192.761719 350.355469 192.683594 351.203125 C 193.519531 346.433594 194.042969 341.628906 194.246094 336.789062 C 199.835938 336.792969 205.402344 336.464844 210.953125 335.8125 C 216.503906 335.15625 221.992188 334.179688 227.429688 332.878906 C 232.863281 331.578125 238.203125 329.964844 243.445312 328.035156 C 248.691406 326.105469 253.800781 323.875 258.785156 321.34375 C 263.765625 318.8125 268.582031 316 273.230469 312.902344 C 277.882812 309.804688 282.332031 306.441406 286.585938 302.820312 C 290.84375 299.199219 294.867188 295.335938 298.667969 291.242188 C 302.46875 287.144531 306.015625 282.839844 309.308594 278.324219 C 310.003906 279.265625 310.9375 280.402344 310.820312 280.925781 L 310.0625 280.164062 L 309.351562 280.78125 L 309.101562 280.53125 L 310.367188 282.421875 L 309.128906 281.453125 C 309.375 281.855469 310.125 282.484375 310.125 282.78125 L 308.632812 281.539062 C 310.875 283.53125 311.617188 285.253906 311.34375 285.617188 L 310.609375 285.144531 L 313.039062 288.398438 C 311.046875 287.539062 309.863281 284.972656 310.324219 286.738281 L 307.398438 284.054688 C 308.128906 285.617188 306.402344 284.386719 307.136719 285.636719 C 308.84375 286.714844 308.855469 286.246094 310.0625 287.570312 C 306.15625 285.195312 310.359375 289.0625 311.402344 290.714844 C 311.527344 290.421875 311.6875 290.285156 310.039062 288.667969 C 310.292969 288.464844 311.742188 289.910156 312 289.863281 L 310.550781 288.105469 L 312.746094 289.710938 L 311.554688 287.75 C 314 289.765625 312.316406 287.441406 314.75 289.765625 C 314.035156 288.496094 316.023438 289.648438 313.8125 287.285156 C 315.558594 288.167969 315.273438 289.175781 315.777344 289.066406 C 315.628906 288.445312 315.597656 287.820312 315.679688 287.1875 C 315.765625 286.558594 315.957031 285.964844 316.261719 285.402344 C 316.566406 284.84375 316.960938 284.359375 317.445312 283.945312 C 317.929688 283.53125 318.46875 283.21875 319.070312 283.007812 L 320.097656 284 L 317.519531 281.328125 C 319.804688 282.492188 323.40625 283.097656 319.738281 279.941406 C 320.125 280.171875 320.472656 280.449219 320.785156 280.773438 C 320.730469 279.820312 324.277344 280.527344 324.484375 279.320312 C 320.503906 276.1875 328.054688 279.628906 322.496094 275.574219 L 323.566406 276.523438 C 321.710938 275.386719 320.015625 274.046875 318.484375 272.503906 C 322.425781 274.640625 321.386719 274.320312 325.070312 276.207031 L 323.527344 275.777344 L 326.695312 277.664062 C 319.402344 271.480469 331.75 277.664062 326.324219 273.332031 C 326.605469 273.566406 327.128906 273.863281 327.402344 274.09375 C 329.492188 274.664062 325.679688 271.910156 324.804688 270.921875 C 326.09375 271.675781 327.28125 272.5625 328.375 273.574219 C 330.140625 273.398438 326.691406 269.449219 329.769531 269.910156 C 327.78125 268.347656 326.785156 268.414062 325.347656 267.140625 C 326.707031 267.371094 327.882812 267.964844 328.878906 268.917969 C 333.382812 270.261719 327.742188 264.691406 332.175781 265.363281 C 330.085938 263.410156 328.796875 263.285156 327.703125 261.425781 C 329.160156 262.472656 333.238281 263.898438 333.097656 264.632812 L 334.785156 265.589844 C 335.664062 264.683594 337.003906 263.484375 332.339844 260.527344 C 336.003906 262.246094 333.136719 260.671875 335.292969 261.191406 C 334.960938 260.828125 334.734375 260.941406 334.460938 260.894531 C 331.53125 259.015625 334.875 260.359375 334.519531 259.839844 L 335.117188 260.242188 L 333.207031 258.410156 C 334.0625 258.539062 334.882812 258.777344 335.675781 259.121094 L 333.113281 257.949219 C 333.289062 257.527344 336.476562 259.246094 336.054688 258.417969 L 334.085938 257.65625 C 335.4375 257.867188 332.992188 256.140625 335.820312 257.324219 C 336.382812 257.558594 336.121094 257.519531 336.152344 257.675781 C 340.289062 258.882812 335.457031 255.746094 337.550781 255.890625 L 333.292969 254.234375 C 332.226562 253.046875 334.3125 254.234375 335.769531 254.878906 C 335.914062 254.445312 337.324219 254.933594 338.019531 254.566406 C 337.183594 254.003906 336.292969 253.539062 335.351562 253.171875 L 336.609375 253.03125 L 338.75 254.355469 C 332.980469 250.953125 340.382812 252.417969 334.949219 249.574219 C 336.277344 249.71875 337.386719 250.878906 338.183594 250.964844 C 341.3125 250.964844 334.984375 247.0625 338.46875 247.382812 C 342.035156 247.050781 339.722656 244.359375 342.285156 243.433594 L 341.109375 243.078125 L 342.414062 242.226562 C 339.898438 241.074219 341.363281 240.679688 338.464844 239.242188 C 339.378906 239.574219 340.835938 239.90625 341.476562 240.238281 C 341.265625 239.632812 340.148438 238.714844 341.804688 238.910156 L 342.765625 239.378906 C 343.839844 238.515625 344.351562 236.988281 342.261719 235.785156 C 342.085938 235.335938 344.199219 235.933594 345.664062 236.234375 C 345.964844 235.621094 344.875 234.867188 343.121094 233.84375 C 343.859375 233.828125 344.59375 233.867188 345.328125 233.957031 L 342.496094 232.964844 C 342.972656 232.804688 344.890625 233.519531 345.699219 233.503906 C 342.492188 231.617188 345.910156 231.253906 345.859375 230.484375 L 344.390625 230.238281 C 343.320312 229.679688 345.476562 229.59375 346.867188 230.289062 C 348.910156 229.257812 342.75 227.164062 343.910156 225.488281 C 349.289062 226.316406 342.710938 223.5 348.714844 224.390625 C 347.359375 223.292969 349.816406 223.207031 346.433594 222.007812 C 347.039062 222.101562 347.304688 222.078125 347.382812 222.222656 C 349.660156 222.304688 348.144531 220.921875 346.769531 219.867188 L 348.585938 220.125 C 344.722656 219.179688 346.089844 217.984375 342.214844 217.101562 C 343.015625 217.203125 343.789062 217.410156 344.535156 217.726562 C 348.3125 217.878906 342.878906 216.730469 343.800781 216.335938 C 344.753906 216.515625 345.894531 216.523438 346.585938 216.738281 C 351.101562 215.503906 344.179688 211.960938 347.382812 209.988281 C 347.609375 209.355469 343.183594 209.796875 343.582031 208.992188 C 345.613281 208.941406 347.558594 209.804688 348.488281 209.347656 C 346.066406 208.714844 346.578125 208.625 346.851562 208.121094 C 347.910156 208.179688 348.929688 208.398438 349.917969 208.785156 C 351.574219 208.617188 346.875 207.207031 350.210938 206.875 C 349.324219 206.828125 348.449219 206.691406 347.59375 206.46875 C 344.183594 205.328125 351.214844 204.671875 349.289062 204.445312 C 348.988281 204.238281 348.664062 204.203125 348.324219 204.339844 C 348.421875 204.007812 349.035156 203.582031 350.976562 203.78125 C 349.980469 203.65625 349.015625 203.402344 348.082031 203.019531 L 350.367188 203.292969 C 349.886719 203.113281 348.453125 202.863281 348.183594 202.699219 L 346.773438 202.855469 C 348.703125 202.578125 344.15625 201.617188 348.539062 201.859375 L 348.628906 201.992188 L 350.644531 201.378906 C 348.875 201.011719 347.113281 200.65625 347.722656 200.210938 C 352.277344 200.210938 348.738281 199.039062 349.234375 198.457031 L 350.820312 198.527344 C 348.617188 197.996094 349.636719 196.8125 348.828125 197.015625 C 348.828125 196.558594 349.941406 195.953125 351.351562 196.195312 C 350.460938 195.808594 350.527344 195.011719 347.882812 194.804688 L 351.722656 194.070312 C 346.085938 193.65625 353.757812 192.6875 347.773438 192.648438 C 348.871094 192.394531 349.976562 192.207031 351.089844 192.085938 C 348.152344 191.550781 348.648438 190.996094 349.132812 190.425781 L 349.757812 190.425781 C 350.25 189.871094 347.226562 189.21875 346.917969 188.4375 L 351.480469 188.273438 C 350.835938 187.863281 347.3125 187.765625 348.261719 187.375 C 348.671875 187.28125 349.066406 187.316406 349.453125 187.476562 C 348.542969 187.09375 349.703125 186.578125 350.824219 186.289062 C 347.542969 185.703125 348.75 185.246094 345.1875 184.730469 C 349.199219 184.269531 346.980469 185.414062 350.738281 185.019531 C 352.886719 184.183594 350.640625 183.328125 348.65625 182.40625 C 349.507812 182.367188 350.355469 182.390625 351.203125 182.46875 C 346.433594 181.632812 341.628906 181.109375 336.789062 180.902344 C 336.792969 175.316406 336.464844 169.746094 335.8125 164.199219 C 335.15625 158.648438 334.179688 153.15625 332.878906 147.722656 C 331.582031 142.289062 329.964844 136.949219 328.035156 131.707031 C 326.105469 126.460938 323.875 121.347656 321.34375 116.367188 C 318.8125 111.386719 316 106.570312 312.902344 101.921875 C 309.804688 97.269531 306.441406 92.816406 302.820312 88.5625 C 299.199219 84.308594 295.335938 80.28125 291.242188 76.484375 C 287.144531 72.683594 282.839844 69.136719 278.324219 65.84375 C 279.265625 65.148438 280.402344 64.210938 280.925781 64.332031 L 280.164062 65.085938 L 280.78125 65.800781 L 280.53125 66.050781 L 282.425781 64.78125 L 281.453125 66.023438 C 281.855469 65.777344 282.484375 65.027344 282.78125 65.027344 L 281.539062 66.519531 C 283.53125 64.273438 285.253906 63.535156 285.617188 63.808594 L 285.144531 64.542969 L 288.398438 62.113281 C 287.539062 64.101562 284.972656 65.285156 286.738281 64.824219 L 284.054688 67.753906 C 285.617188 67.019531 284.386719 68.75 285.636719 68.015625 C 286.714844 66.308594 286.246094 66.292969 287.570312 65.089844 C 285.195312 68.996094 289.0625 64.792969 290.714844 63.765625 C 290.421875 63.640625 290.285156 63.480469 288.667969 65.128906 C 288.464844 64.878906 289.910156 63.425781 289.863281 63.167969 L 288.105469 64.617188 L 289.710938 62.421875 L 287.75 63.617188 C 289.765625 61.167969 287.441406 62.851562 289.765625 60.417969 C 288.496094 61.132812 289.648438 59.144531 287.285156 61.355469 C 288.167969 59.609375 289.175781 59.894531 289.066406 59.390625 C 288.445312 59.539062 287.820312 59.570312 287.1875 59.488281 C 286.558594 59.402344 285.964844 59.210938 285.402344 58.90625 C 284.84375 58.601562 284.359375 58.207031 283.945312 57.722656 C 283.53125 57.238281 283.21875 56.699219 283.007812 56.097656 L 284 55.070312 L 281.328125 57.648438 C 282.492188 55.363281 283.101562 51.761719 279.941406 55.429688 C 280.171875 55.042969 280.449219 54.695312 280.773438 54.382812 C 279.820312 54.4375 280.527344 50.890625 279.320312 50.683594 C 276.1875 54.664062 279.628906 47.113281 275.574219 52.671875 L 276.523438 51.597656 C 275.386719 53.453125 274.046875 55.148438 272.503906 56.683594 C 274.640625 52.738281 274.320312 53.777344 276.207031 50.09375 L 275.777344 51.625 L 277.664062 48.457031 C 271.480469 55.75 277.664062 43.402344 273.332031 48.828125 C 273.566406 48.542969 273.863281 48.019531 274.09375 47.75 C 274.664062 45.660156 271.910156 49.472656 270.921875 50.34375 C 271.675781 49.058594 272.5625 47.871094 273.574219 46.777344 C 273.398438 45.011719 269.449219 48.457031 269.910156 45.382812 C 268.347656 47.371094 268.414062 48.367188 267.140625 49.804688 C 267.371094 48.445312 267.964844 47.269531 268.921875 46.273438 C 270.246094 41.769531 264.691406 47.40625 265.363281 42.957031 C 263.410156 45.050781 263.285156 46.335938 261.425781 47.429688 C 262.472656 45.976562 263.898438 41.894531 264.632812 42.039062 L 265.589844 40.347656 C 264.683594 39.46875 263.484375 38.132812 260.527344 42.792969 C 262.246094 39.148438 260.671875 42 261.191406 39.839844 C 260.828125 40.171875 260.941406 40.402344 260.894531 40.671875 C 259.015625 43.605469 260.359375 40.261719 259.839844 40.617188 L 260.242188 40.019531 L 258.410156 41.925781 C 258.539062 41.074219 258.777344 40.25 259.121094 39.460938 L 257.949219 42.023438 C 257.53125 41.847656 259.246094 38.660156 258.417969 39.082031 L 257.65625 41.050781 C 257.867188 39.699219 256.140625 42.140625 257.324219 39.3125 C 257.558594 38.753906 257.519531 39.015625 257.679688 38.980469 C 258.882812 34.847656 255.746094 39.679688 255.890625 37.585938 L 254.234375 41.84375 C 253.046875 42.90625 254.234375 40.820312 254.878906 39.367188 C 254.445312 39.21875 254.933594 37.8125 254.566406 37.113281 C 254.003906 37.949219 253.539062 38.832031 253.171875 39.765625 L 253.03125 38.507812 L 254.355469 36.367188 C 250.953125 42.136719 252.417969 34.734375 249.574219 40.167969 C 249.71875 38.84375 250.878906 37.730469 250.964844 36.9375 C 250.964844 33.804688 247.0625 40.132812 247.382812 36.652344 C 247.050781 33.082031 244.359375 35.394531 243.433594 32.835938 L 243.078125 34.007812 L 242.226562 32.703125 C 241.074219 35.21875 240.679688 33.757812 239.242188 36.652344 C 239.574219 35.738281 239.90625 34.28125 240.238281 33.644531 C 239.632812 33.851562 238.714844 34.96875 238.910156 33.3125 L 239.378906 32.351562 C 238.515625 31.277344 236.988281 30.765625 235.785156 32.855469 C 235.335938 33.03125 235.933594 30.917969 236.234375 29.457031 C 235.621094 29.152344 234.867188 30.246094 233.84375 32 C 233.828125 31.257812 233.867188 30.523438 233.957031 29.789062 L 232.964844 32.621094 C 232.804688 32.144531 233.519531 30.226562 233.503906 29.417969 C 231.617188 32.625 231.253906 29.207031 230.484375 29.257812 L 230.238281 30.726562 C 229.679688 31.800781 229.59375 29.640625 230.289062 28.25 C 229.257812 26.207031 227.164062 32.371094 225.488281 31.210938 C 226.316406 25.828125 223.5 32.40625 224.390625 26.40625 C 223.292969 27.761719 223.207031 25.300781 222.007812 28.6875 C 222.101562 28.078125 222.078125 27.8125 222.222656 27.734375 C 222.308594 25.457031 220.921875 26.976562 219.867188 28.347656 L 220.125 26.535156 C 219.179688 30.394531 217.988281 29.027344 217.101562 32.902344 C 217.203125 32.101562 217.414062 31.328125 217.726562 30.582031 C 217.878906 26.804688 216.730469 32.242188 216.335938 31.320312 C 216.515625 30.363281 216.523438 29.222656 216.738281 28.535156 C 215.503906 24.015625 211.960938 30.9375 209.988281 27.734375 C 209.355469 27.507812 209.796875 31.933594 208.992188 31.539062 C 208.941406 29.503906 209.804688 27.558594 209.347656 26.628906 C 208.714844 29.050781 208.625 28.539062 208.121094 28.265625 C 208.179688 27.207031 208.398438 26.1875 208.785156 25.199219 C 208.617188 23.542969 207.207031 28.246094 206.875 24.910156 C 206.828125 25.796875 206.695312 26.667969 206.46875 27.523438 C 205.328125 30.933594 204.671875 23.90625 204.445312 25.828125 C 204.238281 26.132812 204.203125 26.453125 204.339844 26.792969 C 204.007812 26.695312 203.582031 26.082031 203.78125 24.140625 C 203.65625 25.136719 203.40625 26.101562 203.023438 27.035156 L 203.300781 24.765625 C 203.121094 25.246094 202.867188 26.679688 202.707031 26.953125 L 202.863281 28.359375 C 202.585938 26.429688 201.625 30.976562 201.867188 26.597656 L 202 26.503906 L 201.382812 24.503906 C 201.015625 26.273438 200.660156 28.035156 200.21875 27.425781 C 200.21875 22.871094 199.042969 26.410156 198.460938 25.914062 L 198.519531 24.328125 C 197.984375 26.53125 196.804688 25.511719 197.007812 26.320312 C 196.546875 26.320312 195.941406 25.207031 196.1875 23.796875 C 195.800781 24.6875 195 24.621094 194.796875 27.261719 L 194.074219 23.414062 C 193.660156 29.050781 192.691406 21.378906 192.652344 27.359375 C 192.398438 26.265625 192.210938 25.160156 192.089844 24.042969 C 191.554688 26.980469 190.996094 26.488281 190.429688 26 L 190.429688 25.375 C 189.875 24.886719 189.21875 27.90625 188.441406 28.21875 L 188.269531 23.664062 C 187.859375 24.304688 187.761719 27.832031 187.375 26.878906 C 187.277344 26.472656 187.3125 26.074219 187.472656 25.6875 C 187.089844 26.601562 186.574219 25.4375 186.285156 24.316406 C 185.699219 27.597656 185.246094 26.390625 184.726562 29.953125 C 184.265625 25.941406 185.410156 28.160156 185.015625 24.402344 C 184.179688 22.257812 183.324219 24.5 182.402344 26.484375 C 182.367188 25.632812 182.386719 24.785156 182.464844 23.9375 C 181.628906 28.710938 181.109375 33.519531 180.902344 38.363281 C 175.316406 38.359375 169.746094 38.6875 164.199219 39.339844 C 158.648438 39.992188 153.15625 40.96875 147.722656 42.269531 C 142.289062 43.570312 136.949219 45.1875 131.707031 47.117188 C 126.460938 49.042969 121.347656 51.273438 116.367188 53.804688 C 111.386719 56.335938 106.570312 59.152344 101.921875 62.25 C 97.269531 65.347656 92.816406 68.707031 88.5625 72.332031 C 84.308594 75.953125 80.28125 79.8125 76.484375 83.910156 C 72.683594 88.007812 69.136719 92.3125 65.84375 96.828125 C 65.148438 95.886719 64.210938 94.746094 64.332031 94.226562 L 65.085938 94.988281 L 65.800781 94.371094 L 66.050781 94.621094 L 64.78125 92.726562 L 66.023438 93.695312 C 65.777344 93.296875 65.027344 92.667969 65.027344 92.371094 L 66.519531 93.609375 C 64.273438 91.605469 63.535156 89.898438 63.808594 89.535156 L 64.542969 90.007812 L 62.113281 86.753906 C 64.101562 87.613281 65.285156 90.179688 64.824219 88.410156 L 67.753906 91.097656 C 67.019531 89.535156 68.75 90.765625 68.015625 89.515625 C 66.308594 88.4375 66.292969 88.90625 65.09375 87.582031 C 68.996094 89.957031 64.792969 86.089844 63.746094 84.4375 C 63.625 84.730469 63.460938 84.867188 65.113281 86.480469 C 64.863281 86.6875 63.410156 85.242188 63.152344 85.289062 L 64.601562 87.046875 L 62.40625 85.441406 L 63.597656 87.398438 C 61.152344 85.382812 62.835938 87.710938 60.402344 85.386719 C 61.113281 86.652344 59.128906 85.503906 61.335938 87.867188 C 59.59375 86.980469 59.878906 85.972656 59.375 86.085938 C 59.523438 86.707031 59.554688 87.332031 59.472656 87.960938 C 59.386719 88.59375 59.195312 89.1875 58.890625 89.746094 C 58.585938 90.304688 58.191406 90.792969 57.707031 91.207031 C 57.222656 91.621094 56.679688 91.933594 56.082031 92.144531 L 55.054688 91.148438 L 57.628906 93.824219 C 55.34375 92.660156 51.746094 92.046875 55.410156 95.207031 C 55.027344 94.980469 54.675781 94.703125 54.367188 94.375 C 54.421875 95.332031 50.871094 94.625 50.667969 95.832031 C 54.644531 98.964844 47.09375 95.523438 52.65625 99.574219 L 51.582031 98.628906 C 53.4375 99.761719 55.132812 101.101562 56.664062 102.644531 C 52.722656 100.511719 53.761719 100.832031 50.078125 98.941406 L 51.625 99.375 L 48.457031 97.488281 C 55.75 103.671875 43.402344 97.46875 48.828125 101.816406 C 48.542969 101.585938 48.019531 101.285156 47.75 101.058594 C 45.660156 100.488281 49.472656 103.238281 50.34375 104.226562 C 49.058594 103.476562 47.871094 102.589844 46.777344 101.574219 C 45.011719 101.753906 48.457031 105.703125 45.382812 105.242188 C 47.371094 106.804688 48.367188 106.738281 49.804688 108.011719 C 48.445312 107.777344 47.269531 107.1875 46.273438 106.230469 C 41.769531 104.90625 47.40625 110.460938 42.957031 109.789062 C 45.050781 111.742188 46.335938 111.863281 47.429688 113.726562 C 45.976562 112.675781 41.894531 111.25 42.039062 110.519531 L 40.347656 109.5625 C 39.46875 110.46875 38.132812 111.664062 42.796875 114.625 C 39.148438 112.90625 42 114.480469 39.839844 113.960938 C 40.171875 114.320312 40.402344 114.207031 40.671875 114.253906 C 43.605469 116.136719 40.261719 114.792969 40.617188 115.308594 L 40.019531 114.910156 L 41.925781 116.742188 C 41.074219 116.609375 40.25 116.375 39.460938 116.027344 L 42.023438 117.203125 C 41.851562 117.621094 38.660156 115.90625 39.082031 116.730469 L 41.050781 117.496094 C 39.699219 117.28125 42.140625 119.011719 39.3125 117.828125 C 38.753906 117.59375 39.015625 117.628906 38.980469 117.472656 C 34.847656 116.269531 39.679688 119.40625 37.585938 119.257812 L 41.84375 120.917969 C 42.90625 122.105469 40.820312 120.917969 39.367188 120.273438 C 39.21875 120.707031 37.8125 120.21875 37.113281 120.585938 C 37.949219 121.148438 38.832031 121.613281 39.765625 121.976562 L 38.507812 122.121094 L 36.367188 120.792969 C 42.136719 124.199219 34.734375 122.734375 40.167969 125.574219 C 38.84375 125.433594 37.730469 124.273438 36.9375 124.1875 C 33.804688 124.1875 40.132812 128.089844 36.652344 127.765625 C 33.082031 128.097656 35.394531 130.792969 32.835938 131.714844 L 34.007812 132.074219 L 32.703125 132.921875 C 35.21875 134.078125 33.757812 134.472656 36.652344 135.90625 C 35.738281 135.578125 34.28125 135.246094 33.644531 134.914062 C 33.851562 135.519531 34.96875 136.433594 33.3125 136.238281 L 32.394531 135.761719 C 31.320312 136.625 30.804688 138.152344 32.898438 139.355469 C 33.074219 139.804688 30.957031 139.207031 29.496094 138.910156 C 29.191406 139.523438 30.285156 140.273438 32.039062 141.300781 C 31.300781 141.3125 30.5625 141.273438 29.828125 141.183594 L 32.660156 142.179688 C 32.183594 142.335938 30.265625 141.621094 29.457031 141.636719 C 32.664062 143.523438 29.246094 143.886719 29.300781 144.660156 L 30.769531 144.902344 C 31.839844 145.460938 29.679688 145.546875 28.292969 144.855469 C 26.25 145.882812 32.410156 147.976562 31.25 149.652344 C 25.867188 148.824219 32.445312 151.640625 26.445312 150.75 C 27.800781 151.847656 25.339844 151.933594 28.726562 153.132812 C 28.117188 153.039062 27.855469 153.0625 27.773438 152.917969 C 25.496094 152.832031 27.015625 154.222656 28.386719 155.277344 L 26.574219 155.015625 C 30.433594 155.960938 29.066406 157.152344 32.945312 158.039062 C 32.140625 157.9375 31.367188 157.730469 30.621094 157.414062 C 26.84375 157.261719 32.28125 158.410156 31.359375 158.808594 C 30.402344 158.625 29.261719 158.617188 28.574219 158.402344 C 24.058594 159.636719 30.976562 163.179688 27.773438 165.152344 C 27.546875 165.789062 31.976562 165.347656 31.578125 166.148438 C 29.542969 166.199219 27.597656 165.335938 26.667969 165.792969 C 29.089844 166.425781 28.578125 166.515625 28.304688 167.019531 C 27.246094 166.960938 26.226562 166.742188 25.242188 166.359375 C 23.582031 166.523438 28.285156 167.933594 24.949219 168.265625 C 25.835938 168.3125 26.707031 168.445312 27.566406 168.671875 C 30.972656 169.8125 23.945312 170.46875 25.867188 170.699219 C 26.171875 170.902344 26.492188 170.9375 26.832031 170.800781 C 26.734375 171.132812 26.121094 171.558594 24.179688 171.359375 C 25.179688 171.484375 26.144531 171.738281 27.074219 172.117188 L 24.765625 171.851562 C 25.246094 172.03125 26.679688 172.28125 26.953125 172.445312 L 28.359375 172.289062 C 26.429688 172.566406 30.976562 173.527344 26.597656 173.285156 L 26.503906 173.152344 L 24.492188 173.765625 C 26.257812 174.132812 28.023438 174.488281 27.414062 174.929688 C 22.855469 174.929688 26.398438 176.105469 25.902344 176.6875 L 24.328125 176.632812 C 26.53125 177.167969 25.511719 178.347656 26.320312 178.144531 C 26.320312 178.601562 25.207031 179.210938 23.796875 178.964844 C 24.6875 179.351562 24.621094 180.152344 27.261719 180.355469 L 23.414062 181.078125 C 29.078125 181.492188 21.378906 182.460938 27.359375 182.5 Z M 309.824219 277.601562 L 310.050781 277.285156 C 310.988281 277.925781 312.65625 278.929688 312.488281 279.300781 C 312.238281 279.203125 311.730469 278.859375 311.492188 278.761719 L 312.515625 279.757812 C 311.53125 279.148438 310.636719 278.429688 309.824219 277.601562 Z M 314.691406 278.464844 C 315.535156 279.996094 311.886719 277.824219 310.230469 277.035156 C 310.871094 276.132812 311.53125 275.242188 312.152344 274.328125 C 314.472656 276.476562 313.074219 277.121094 317.511719 280.417969 C 316.484375 279.738281 317.03125 281.007812 314.691406 278.464844 Z M 317.277344 266.71875 C 317.207031 266.695312 317.113281 266.648438 317.027344 266.613281 C 317.289062 266.164062 317.542969 265.714844 317.804688 265.261719 C 318.582031 266.207031 318.882812 266.925781 317.277344 266.71875 Z M 316.753906 267.082031 C 317.417969 267.589844 317.75 267.972656 317.210938 268.003906 L 316.488281 267.554688 C 316.578125 267.398438 316.664062 267.238281 316.753906 267.082031 Z M 315.402344 269.304688 C 315.539062 270.300781 316.980469 271.957031 314.160156 271.417969 C 315.816406 273.441406 315.671875 274.582031 317.292969 276.34375 C 315.6875 275.242188 314.246094 274.226562 312.890625 273.21875 C 313.75 271.929688 314.574219 270.621094 315.402344 269.304688 Z M 312.542969 273.765625 C 313.007812 274.253906 313.125 274.5 312.296875 274.125 C 312.378906 274.003906 312.460938 273.882812 312.542969 273.765625 Z M 320.085938 271.226562 C 319.09375 270.296875 318.039062 269.449219 316.925781 268.671875 C 316.554688 268.597656 316.1875 268.597656 315.816406 268.671875 C 315.988281 268.390625 316.148438 268.113281 316.332031 267.832031 L 317.015625 268.398438 C 319.382812 269.542969 319.007812 268.398438 321.226562 270.386719 C 318.378906 269.382812 323.445312 272.363281 320.085938 271.226562 Z M 322.074219 257.296875 C 322.105469 257.238281 322.136719 257.179688 322.167969 257.117188 C 322.589844 257.378906 323.019531 257.648438 323.445312 257.925781 C 322.910156 257.671875 322.484375 257.476562 322.082031 257.285156 Z M 325.5625 253.894531 C 325.113281 253.53125 324.628906 253.21875 324.113281 252.960938 L 324.390625 252.339844 C 324.816406 252.550781 325.222656 252.789062 325.617188 253.050781 C 325.6875 253.351562 326.054688 253.839844 325.5625 253.894531 Z M 326.304688 247.875 C 326.339844 247.796875 326.367188 247.710938 326.402344 247.628906 C 326.910156 247.929688 327.492188 248.25 328.210938 248.625 C 327.542969 248.460938 326.90625 248.210938 326.304688 247.878906 Z M 97.550781 309.824219 L 97.863281 310.050781 C 97.226562 310.988281 96.207031 312.65625 95.851562 312.488281 C 95.949219 312.238281 96.292969 311.730469 96.390625 311.492188 L 95.394531 312.515625 C 96.003906 311.53125 96.722656 310.636719 97.550781 309.824219 Z M 94.730469 317.511719 C 95.394531 316.484375 94.140625 317.03125 96.683594 314.691406 C 95.148438 315.535156 97.324219 311.882812 98.113281 310.230469 C 99.015625 310.871094 99.902344 311.53125 100.820312 312.152344 C 98.675781 314.46875 98.046875 313.074219 94.730469 317.511719 Z M 101.03125 312.296875 C 101.152344 312.378906 101.273438 312.460938 101.394531 312.542969 C 100.894531 313.007812 100.648438 313.125 101.03125 312.296875 Z M 98.8125 317.292969 C 99.917969 315.6875 100.933594 314.246094 101.941406 312.890625 C 103.226562 313.75 104.535156 314.582031 105.851562 315.402344 C 104.859375 315.539062 103.199219 316.980469 103.742188 314.160156 C 101.710938 315.832031 100.570312 315.671875 98.804688 317.292969 Z M 104.78125 321.226562 C 105.777344 318.378906 102.792969 323.445312 103.917969 320.085938 C 104.84375 319.09375 105.695312 318.039062 106.46875 316.925781 C 106.542969 316.554688 106.542969 316.1875 106.46875 315.816406 C 106.75 315.988281 107.027344 316.148438 107.308594 316.332031 L 106.746094 317.015625 C 105.621094 319.382812 106.777344 318.996094 104.792969 321.226562 Z M 107.140625 317.210938 L 107.585938 316.488281 C 107.742188 316.578125 107.917969 316.664062 108.058594 316.753906 C 107.558594 317.410156 107.179688 317.757812 107.148438 317.226562 Z M 108.421875 317.277344 C 108.453125 317.191406 108.488281 317.109375 108.527344 317.027344 C 108.972656 317.289062 109.425781 317.542969 109.878906 317.804688 C 108.941406 318.582031 108.226562 318.882812 108.433594 317.277344 Z M 117.230469 323.453125 C 117.46875 322.910156 117.664062 322.484375 117.855469 322.082031 L 118.039062 322.175781 C 117.785156 322.601562 117.515625 323.027344 117.238281 323.453125 Z M 122.085938 325.613281 C 121.789062 325.6875 121.300781 326.054688 121.246094 325.5625 C 121.609375 325.113281 121.917969 324.628906 122.175781 324.113281 L 122.796875 324.390625 C 122.589844 324.816406 122.355469 325.222656 122.097656 325.617188 Z M 126.519531 328.210938 C 126.683594 327.542969 126.929688 326.90625 127.261719 326.304688 L 127.503906 326.402344 C 127.226562 326.910156 126.894531 327.503906 126.53125 328.210938 Z M 274.121094 62.851562 L 273.757812 62.605469 C 274.253906 62.144531 274.5 62.027344 274.121094 62.851562 Z M 277.59375 65.328125 L 277.28125 65.101562 C 277.917969 64.164062 278.9375 62.496094 279.292969 62.664062 C 279.199219 62.914062 278.851562 63.417969 278.753906 63.660156 L 279.75 62.632812 C 279.144531 63.617188 278.425781 64.515625 277.601562 65.328125 Z M 280.421875 57.640625 C 279.757812 58.667969 281.011719 58.121094 278.46875 60.460938 C 280.003906 59.617188 277.828125 63.265625 277.039062 64.921875 C 276.136719 64.277344 275.246094 63.621094 274.332031 63 C 276.476562 60.683594 277.121094 62.078125 280.421875 57.640625 Z M 276.347656 57.859375 C 275.242188 59.464844 274.230469 60.90625 273.222656 62.257812 C 271.933594 61.398438 270.625 60.566406 269.308594 59.75 C 270.304688 59.613281 271.960938 58.171875 271.421875 60.992188 C 273.457031 59.320312 274.582031 59.480469 276.34375 57.859375 Z M 270.359375 53.921875 C 269.382812 56.769531 272.347656 51.703125 271.226562 55.066406 C 270.296875 56.058594 269.449219 57.113281 268.671875 58.226562 C 268.597656 58.597656 268.597656 58.964844 268.671875 59.335938 L 267.832031 58.816406 L 268.398438 58.132812 C 269.53125 55.769531 268.375 56.15625 270.359375 53.921875 Z M 268.003906 57.925781 L 267.554688 58.652344 C 267.398438 58.558594 267.238281 58.476562 267.082031 58.382812 C 267.585938 57.738281 267.972656 57.394531 268.003906 57.925781 Z M 266.71875 57.859375 C 266.691406 57.945312 266.652344 58.03125 266.613281 58.109375 C 266.167969 57.847656 265.714844 57.59375 265.261719 57.335938 C 266.207031 56.570312 266.925781 56.265625 266.71875 57.871094 Z M 257.910156 51.699219 C 257.671875 52.242188 257.476562 52.667969 257.285156 53.066406 L 257.101562 52.976562 C 257.363281 52.550781 257.636719 52.121094 257.910156 51.699219 Z M 253.054688 49.535156 C 253.351562 49.464844 253.839844 49.09375 253.894531 49.589844 C 253.53125 50.039062 253.222656 50.519531 252.964844 51.039062 L 252.34375 50.757812 C 252.554688 50.335938 252.789062 49.929688 253.054688 49.535156 Z M 248.621094 46.941406 C 248.460938 47.609375 248.210938 48.246094 247.878906 48.847656 L 247.636719 48.75 C 247.925781 48.242188 248.257812 47.644531 248.621094 46.941406 Z M 57.871094 108.433594 C 57.957031 108.460938 58.042969 108.496094 58.125 108.539062 C 57.863281 108.984375 57.605469 109.4375 57.347656 109.886719 C 56.570312 108.941406 56.265625 108.226562 57.871094 108.433594 Z M 57.871094 98.816406 C 59.476562 99.921875 60.917969 100.933594 62.273438 101.945312 C 61.414062 103.230469 60.582031 104.535156 59.761719 105.855469 C 59.625 104.863281 58.183594 103.203125 61.003906 103.742188 C 59.320312 101.710938 59.480469 100.570312 57.859375 98.804688 Z M 62.621094 101.394531 C 62.15625 100.90625 62.039062 100.660156 62.867188 101.035156 Z M 58.410156 108.078125 C 57.746094 107.574219 57.414062 107.1875 57.953125 107.160156 L 58.679688 107.605469 C 58.589844 107.753906 58.488281 107.910156 58.394531 108.066406 Z M 65.339844 97.558594 L 65.113281 97.875 C 64.175781 97.234375 62.507812 96.21875 62.675781 95.863281 C 62.925781 95.953125 63.433594 96.304688 63.671875 96.398438 L 62.648438 95.40625 C 63.628906 96.011719 64.519531 96.726562 65.328125 97.550781 Z M 60.476562 96.699219 C 59.628906 95.164062 63.277344 97.335938 64.933594 98.125 C 64.292969 99.027344 63.636719 99.917969 63.011719 100.832031 C 60.691406 98.683594 62.089844 98.039062 57.652344 94.746094 C 58.667969 95.414062 58.121094 94.144531 60.460938 96.6875 Z M 55.082031 103.9375 C 56.074219 104.863281 57.125 105.714844 58.242188 106.488281 C 58.609375 106.5625 58.980469 106.5625 59.347656 106.488281 L 58.832031 107.328125 L 58.148438 106.765625 C 55.78125 105.617188 56.15625 106.765625 53.9375 104.773438 C 56.769531 105.769531 51.703125 102.789062 55.066406 103.925781 Z M 53.089844 117.863281 C 53.0625 117.921875 53.027344 117.980469 52.996094 118.046875 C 52.574219 117.785156 52.144531 117.511719 51.722656 117.234375 C 52.242188 117.476562 52.667969 117.675781 53.066406 117.867188 Z M 49.589844 121.257812 C 50.039062 121.621094 50.519531 121.933594 51.039062 122.191406 L 50.757812 122.808594 C 50.335938 122.597656 49.929688 122.363281 49.535156 122.101562 C 49.464844 121.796875 49.09375 121.3125 49.589844 121.257812 Z M 48.847656 127.277344 L 48.75 127.519531 C 48.242188 127.222656 47.660156 126.902344 46.941406 126.523438 C 47.609375 126.6875 48.246094 126.9375 48.847656 127.273438 Z M 48.847656 127.277344 " fill-opacity="1" fill-rule="nonzero"/><path fill="#dff6ff" d="M 296.410156 68.585938 L 294.132812 70.148438 L 295.082031 70.21875 Z M 296.410156 68.585938 " fill-opacity="1" fill-rule="nonzero"/><path fill="#dff6ff" d="M 290.921875 70.347656 C 292.578125 69.46875 294.203125 68.441406 294.78125 69.203125 C 298.234375 64.230469 290.140625 71.371094 293.5625 66.363281 L 293.839844 66.136719 C 291.6875 67.242188 293.414062 63.585938 291.652344 64.222656 C 289.144531 65.550781 286.96875 67.300781 285.132812 69.46875 L 288.429688 67.070312 C 286.421875 69.722656 287.058594 69.980469 288.199219 69.550781 L 287.558594 69.265625 C 287.976562 69.039062 289.246094 67.347656 289.667969 67.125 C 289.335938 69.113281 292.539062 65.796875 290.902344 69.195312 L 290.628906 69.425781 L 292.617188 68.304688 C 292.175781 69.085938 291.609375 69.769531 290.921875 70.347656 Z M 290.921875 70.347656 " fill-opacity="1" fill-rule="nonzero"/><path fill="#dff6ff" d="M 290.921875 70.347656 L 290.777344 70.425781 C 290.664062 70.554688 290.753906 70.496094 290.921875 70.347656 Z M 290.921875 70.347656 " fill-opacity="1" fill-rule="nonzero"/><path fill="#dff6ff" d="M 264.625 42.066406 L 264.160156 42.902344 C 264.371094 42.652344 264.523438 42.375 264.625 42.066406 Z M 264.625 42.066406 " fill-opacity="1" fill-rule="nonzero"/><path fill="#dff6ff" d="M 268.671875 58.226562 L 268.671875 58.101562 C 267.933594 59.207031 268.152344 58.941406 268.671875 58.226562 Z M 268.671875 58.226562 " fill-opacity="1" fill-rule="nonzero"/><path fill="#dff6ff" d="M 202.707031 26.964844 L 202.550781 25.558594 C 202.539062 26.851562 202.605469 27.136719 202.707031 26.964844 Z M 202.707031 26.964844 " fill-opacity="1" fill-rule="nonzero"/><path fill="#dff6ff" d="M 291.40625 63.703125 C 291.40625 63.40625 291.132812 63.484375 290.742188 63.742188 C 290.96875 63.832031 291.191406 63.820312 291.40625 63.703125 Z M 291.40625 63.703125 " fill-opacity="1" fill-rule="nonzero"/><path fill="#dff6ff" d="M 304.933594 295.082031 L 306.566406 296.410156 L 305.003906 294.132812 Z M 304.933594 295.082031 " fill-opacity="1" fill-rule="nonzero"/><path fill="#dff6ff" d="M 304.804688 290.921875 C 305.683594 292.578125 306.710938 294.203125 305.949219 294.78125 C 310.921875 298.234375 303.78125 290.140625 308.789062 293.5625 L 309.015625 293.839844 C 307.910156 291.6875 311.566406 293.414062 310.929688 291.652344 C 309.597656 289.144531 307.851562 286.96875 305.683594 285.132812 L 308.082031 288.429688 C 305.429688 286.421875 305.167969 287.058594 305.601562 288.199219 L 305.886719 287.558594 C 306.113281 287.976562 307.800781 289.246094 308.027344 289.667969 C 306.039062 289.335938 309.355469 292.539062 305.957031 290.902344 L 305.726562 290.628906 L 306.847656 292.617188 C 306.0625 292.175781 305.382812 291.609375 304.804688 290.921875 Z M 304.804688 290.921875 " fill-opacity="1" fill-rule="nonzero"/><path fill="#dff6ff" d="M 304.804688 290.921875 L 304.726562 290.777344 C 304.597656 290.664062 304.65625 290.753906 304.804688 290.921875 Z M 304.804688 290.921875 " fill-opacity="1" fill-rule="nonzero"/><path fill="#dff6ff" d="M 333.085938 264.625 L 332.25 264.160156 C 332.496094 264.371094 332.777344 264.523438 333.085938 264.625 Z M 333.085938 264.625 " fill-opacity="1" fill-rule="nonzero"/><path fill="#dff6ff" d="M 316.925781 268.671875 L 317.050781 268.671875 C 315.945312 267.933594 316.210938 268.152344 316.925781 268.671875 Z M 316.925781 268.671875 " fill-opacity="1" fill-rule="nonzero"/><path fill="#dff6ff" d="M 311.445312 291.40625 C 311.746094 291.40625 311.667969 291.132812 311.410156 290.742188 C 311.320312 290.96875 311.332031 291.191406 311.445312 291.40625 Z M 311.445312 291.40625 " fill-opacity="1" fill-rule="nonzero"/><path fill="#dff6ff" d="M 349.722656 202.964844 L 349.78125 202.964844 L 349.617188 200.878906 C 348.234375 200.859375 346.925781 200.859375 346.554688 202.207031 L 346.261719 203.488281 L 347.839844 204.40625 L 349.789062 204.191406 Z M 349.722656 202.964844 " fill-opacity="1" fill-rule="nonzero"/><g clip-path="url(#18e3fcaf7f)"><path fill="#1363df" d="M 133.664062 250.367188 L 91.042969 250.367188 L 121.65625 186.722656 L 167.746094 279.046875 C 174.691406 291.960938 192.046875 300.796875 209.417969 300.796875 L 235.308594 300.796875 L 121.671875 73.910156 L 8.019531 300.78125 L 83.15625 300.78125 C 110.941406 300.78125 133.664062 278.101562 133.664062 250.367188 Z M 133.664062 250.367188 " fill-opacity="1" fill-rule="nonzero"/></g><g clip-path="url(#bfc503e2bb)"><path fill="#1363df" d="M 247.328125 250.367188 C 247.328125 278.101562 269.734375 300.78125 297.835938 300.78125 L 297.835938 193.96875 L 367.292969 73.910156 L 338.246094 73.910156 C 320.246094 73.910156 304.464844 83.042969 295.628906 97.234375 L 272.589844 136.9375 L 272.273438 136.9375 L 249.222656 97.234375 C 240.386719 83.042969 224.605469 73.910156 206.921875 73.910156 L 177.558594 73.910156 L 247.328125 194.28125 Z M 247.328125 250.367188 " fill-opacity="1" fill-rule="nonzero"/></g></svg>