<svg xmlns="http://www.w3.org/2000/svg" xmlns:xlink="http://www.w3.org/1999/xlink" width="500" zoomAndPan="magnify" viewBox="0 0 375 374.999991" height="500" preserveAspectRatio="xMidYMid meet" version="1.0"><defs><clipPath id="7dcfff0e7b"><path d="M 26.273438 26.273438 L 348.773438 26.273438 L 348.773438 348.773438 L 26.273438 348.773438 Z M 26.273438 26.273438 " clip-rule="nonzero"/></clipPath><clipPath id="d8fadac9ae"><path d="M 54.066406 103 L 223 103 L 223 272.4375 L 54.066406 272.4375 Z M 54.066406 103 " clip-rule="nonzero"/></clipPath><clipPath id="d31f6867ea"><path d="M 180 103 L 321.066406 103 L 321.066406 272.4375 L 180 272.4375 Z M 180 103 " clip-rule="nonzero"/></clipPath></defs><g clip-path="url(#7dcfff0e7b)"><path fill="#dff6ff" d="M 348.773438 187.523438 C 348.773438 190.160156 348.707031 192.796875 348.578125 195.433594 C 348.449219 198.070312 348.253906 200.699219 347.996094 203.328125 C 347.738281 205.953125 347.414062 208.570312 347.027344 211.183594 C 346.640625 213.792969 346.1875 216.390625 345.671875 218.980469 C 345.160156 221.566406 344.582031 224.140625 343.9375 226.703125 C 343.296875 229.261719 342.59375 231.804688 341.828125 234.332031 C 341.0625 236.855469 340.234375 239.359375 339.34375 241.84375 C 338.457031 244.328125 337.507812 246.792969 336.496094 249.230469 C 335.488281 251.667969 334.417969 254.078125 333.289062 256.464844 C 332.160156 258.851562 330.976562 261.207031 329.730469 263.535156 C 328.488281 265.863281 327.1875 268.15625 325.832031 270.421875 C 324.472656 272.683594 323.0625 274.914062 321.597656 277.109375 C 320.128906 279.300781 318.609375 281.457031 317.039062 283.578125 C 315.46875 285.699219 313.84375 287.777344 312.167969 289.816406 C 310.496094 291.859375 308.773438 293.855469 307 295.8125 C 305.226562 297.765625 303.410156 299.675781 301.542969 301.542969 C 299.675781 303.410156 297.765625 305.226562 295.8125 307 C 293.855469 308.773438 291.859375 310.496094 289.816406 312.167969 C 287.777344 313.84375 285.699219 315.46875 283.578125 317.039062 C 281.457031 318.609375 279.300781 320.128906 277.109375 321.597656 C 274.914062 323.0625 272.683594 324.472656 270.421875 325.832031 C 268.15625 327.1875 265.863281 328.488281 263.535156 329.730469 C 261.207031 330.976562 258.851562 332.160156 256.464844 333.289062 C 254.078125 334.417969 251.667969 335.488281 249.230469 336.496094 C 246.792969 337.507812 244.328125 338.457031 241.84375 339.34375 C 239.359375 340.234375 236.855469 341.0625 234.332031 341.828125 C 231.804688 342.59375 229.261719 343.296875 226.703125 343.9375 C 224.140625 344.582031 221.566406 345.160156 218.980469 345.671875 C 216.390625 346.1875 213.792969 346.640625 211.183594 347.027344 C 208.570312 347.414062 205.953125 347.738281 203.328125 347.996094 C 200.699219 348.253906 198.070312 348.449219 195.433594 348.578125 C 192.796875 348.707031 190.160156 348.773438 187.523438 348.773438 C 184.882812 348.773438 182.246094 348.707031 179.609375 348.578125 C 176.972656 348.449219 174.34375 348.253906 171.714844 347.996094 C 169.089844 347.738281 166.472656 347.414062 163.863281 347.027344 C 161.25 346.640625 158.652344 346.1875 156.0625 345.671875 C 153.476562 345.160156 150.902344 344.582031 148.339844 343.9375 C 145.78125 343.296875 143.238281 342.59375 140.714844 341.828125 C 138.1875 341.0625 135.683594 340.234375 133.199219 339.34375 C 130.714844 338.457031 128.253906 337.507812 125.8125 336.496094 C 123.375 335.488281 120.964844 334.417969 118.578125 333.289062 C 116.191406 332.160156 113.835938 330.976562 111.507812 329.730469 C 109.183594 328.488281 106.886719 327.1875 104.621094 325.832031 C 102.359375 324.472656 100.128906 323.0625 97.9375 321.597656 C 95.742188 320.128906 93.585938 318.609375 91.464844 317.039062 C 89.34375 315.46875 87.265625 313.84375 85.226562 312.167969 C 83.1875 310.496094 81.1875 308.773438 79.234375 307 C 77.277344 305.226562 75.367188 303.410156 73.5 301.542969 C 71.636719 299.675781 69.816406 297.765625 68.042969 295.8125 C 66.269531 293.855469 64.546875 291.859375 62.875 289.816406 C 61.199219 287.777344 59.578125 285.699219 58.003906 283.578125 C 56.433594 281.457031 54.914062 279.300781 53.449219 277.109375 C 51.980469 274.914062 50.570312 272.683594 49.214844 270.421875 C 47.855469 268.15625 46.554688 265.863281 45.3125 263.535156 C 44.066406 261.207031 42.882812 258.851562 41.753906 256.464844 C 40.625 254.078125 39.554688 251.667969 38.546875 249.230469 C 37.535156 246.792969 36.585938 244.328125 35.699219 241.84375 C 34.808594 239.359375 33.980469 236.855469 33.214844 234.332031 C 32.449219 231.804688 31.746094 229.261719 31.105469 226.703125 C 30.464844 224.140625 29.886719 221.566406 29.371094 218.980469 C 28.855469 216.390625 28.40625 213.792969 28.015625 211.183594 C 27.628906 208.570312 27.308594 205.953125 27.046875 203.328125 C 26.789062 200.699219 26.59375 198.070312 26.464844 195.433594 C 26.335938 192.796875 26.273438 190.160156 26.273438 187.523438 C 26.273438 184.882812 26.335938 182.246094 26.464844 179.609375 C 26.59375 176.972656 26.789062 174.34375 27.046875 171.714844 C 27.308594 169.089844 27.628906 166.472656 28.015625 163.863281 C 28.40625 161.25 28.855469 158.652344 29.371094 156.0625 C 29.886719 153.476562 30.464844 150.902344 31.105469 148.339844 C 31.746094 145.78125 32.449219 143.238281 33.214844 140.714844 C 33.980469 138.1875 34.808594 135.683594 35.699219 133.199219 C 36.585938 130.714844 37.535156 128.253906 38.546875 125.8125 C 39.554688 123.375 40.625 120.964844 41.753906 118.578125 C 42.882812 116.191406 44.066406 113.835938 45.3125 111.507812 C 46.554688 109.183594 47.855469 106.886719 49.214844 104.621094 C 50.570312 102.359375 51.980469 100.128906 53.449219 97.9375 C 54.914062 95.742188 56.433594 93.585938 58.003906 91.464844 C 59.578125 89.34375 61.199219 87.265625 62.875 85.226562 C 64.546875 83.1875 66.269531 81.1875 68.042969 79.234375 C 69.816406 77.277344 71.636719 75.367188 73.5 73.5 C 75.367188 71.636719 77.277344 69.816406 79.234375 68.042969 C 81.1875 66.269531 83.1875 64.546875 85.226562 62.875 C 87.265625 61.199219 89.34375 59.578125 91.464844 58.003906 C 93.585938 56.433594 95.742188 54.914062 97.9375 53.449219 C 100.128906 51.980469 102.359375 50.570312 104.621094 49.214844 C 106.886719 47.855469 109.183594 46.554688 111.507812 45.3125 C 113.835938 44.066406 116.191406 42.882812 118.578125 41.753906 C 120.964844 40.625 123.375 39.554688 125.8125 38.546875 C 128.253906 37.535156 130.714844 36.585938 133.199219 35.699219 C 135.683594 34.808594 138.1875 33.980469 140.714844 33.214844 C 143.238281 32.449219 145.78125 31.746094 148.339844 31.105469 C 150.902344 30.464844 153.476562 29.886719 156.0625 29.371094 C 158.652344 28.855469 161.25 28.40625 163.863281 28.015625 C 166.472656 27.628906 169.089844 27.308594 171.714844 27.046875 C 174.34375 26.789062 176.972656 26.59375 179.609375 26.464844 C 182.246094 26.335938 184.882812 26.273438 187.523438 26.273438 C 190.160156 26.273438 192.796875 26.335938 195.433594 26.464844 C 198.070312 26.59375 200.699219 26.789062 203.328125 27.046875 C 205.953125 27.308594 208.570312 27.628906 211.183594 28.015625 C 213.792969 28.40625 216.390625 28.855469 218.980469 29.371094 C 221.566406 29.886719 224.140625 30.464844 226.703125 31.105469 C 229.261719 31.746094 231.804688 32.449219 234.332031 33.214844 C 236.855469 33.980469 239.359375 34.808594 241.84375 35.699219 C 244.328125 36.585938 246.792969 37.535156 249.230469 38.546875 C 251.667969 39.554688 254.078125 40.625 256.464844 41.753906 C 258.851562 42.882812 261.207031 44.066406 263.535156 45.3125 C 265.863281 46.554688 268.15625 47.855469 270.421875 49.214844 C 272.683594 50.570312 274.914062 51.980469 277.109375 53.449219 C 279.300781 54.914062 281.457031 56.433594 283.578125 58.003906 C 285.699219 59.578125 287.777344 61.199219 289.816406 62.875 C 291.859375 64.546875 293.855469 66.269531 295.8125 68.042969 C 297.765625 69.816406 299.675781 71.636719 301.542969 73.5 C 303.410156 75.367188 305.226562 77.277344 307 79.234375 C 308.773438 81.1875 310.496094 83.1875 312.167969 85.226562 C 313.84375 87.265625 315.46875 89.34375 317.039062 91.464844 C 318.609375 93.585938 320.128906 95.742188 321.597656 97.9375 C 323.0625 100.128906 324.472656 102.359375 325.832031 104.621094 C 327.1875 106.886719 328.488281 109.183594 329.730469 111.507812 C 330.976562 113.835938 332.160156 116.191406 333.289062 118.578125 C 334.417969 120.964844 335.488281 123.375 336.496094 125.8125 C 337.507812 128.253906 338.457031 130.714844 339.347656 133.199219 C 340.234375 135.683594 341.0625 138.1875 341.828125 140.714844 C 342.59375 143.238281 343.296875 145.78125 343.9375 148.339844 C 344.582031 150.902344 345.160156 153.476562 345.671875 156.0625 C 346.1875 158.652344 346.640625 161.25 347.027344 163.863281 C 347.414062 166.472656 347.738281 169.089844 347.996094 171.714844 C 348.253906 174.34375 348.449219 176.972656 348.578125 179.609375 C 348.707031 182.246094 348.773438 184.882812 348.773438 187.523438 Z M 348.773438 187.523438 " fill-opacity="1" fill-rule="nonzero"/></g><g clip-path="url(#d8fadac9ae)"><path fill="#1363df" d="M 147.449219 234.667969 L 115.773438 234.667969 L 138.527344 187.199219 L 172.78125 256.058594 C 177.941406 265.691406 190.839844 272.277344 203.75 272.277344 L 222.996094 272.277344 L 138.535156 103.054688 L 54.066406 272.269531 L 109.910156 272.269531 C 130.5625 272.269531 147.449219 255.351562 147.449219 234.667969 Z M 147.449219 234.667969 " fill-opacity="1" fill-rule="nonzero"/></g><g clip-path="url(#d31f6867ea)"><path fill="#1363df" d="M 231.925781 234.667969 C 231.925781 255.351562 248.582031 272.269531 269.464844 272.269531 L 269.464844 192.601562 L 321.085938 103.054688 L 299.5 103.054688 C 286.117188 103.054688 274.390625 109.871094 267.824219 120.453125 L 250.703125 150.066406 L 250.46875 150.066406 L 233.335938 120.453125 C 226.765625 109.871094 215.039062 103.054688 201.894531 103.054688 L 180.070312 103.054688 L 231.925781 192.835938 Z M 231.925781 234.667969 " fill-opacity="1" fill-rule="nonzero"/></g></svg>