<svg xmlns="http://www.w3.org/2000/svg" xmlns:xlink="http://www.w3.org/1999/xlink" width="500" zoomAndPan="magnify" viewBox="0 0 375 374.999991" height="500" preserveAspectRatio="xMidYMid meet" version="1.0"><defs><clipPath id="021f3e4c6a"><path d="M 26.054688 85.183594 L 231 85.183594 L 231 289.933594 L 26.054688 289.933594 Z M 26.054688 85.183594 " clip-rule="nonzero"/></clipPath><clipPath id="556dad601a"><path d="M 178 85.183594 L 349.304688 85.183594 L 349.304688 289.933594 L 178 289.933594 Z M 178 85.183594 " clip-rule="nonzero"/></clipPath></defs><g clip-path="url(#021f3e4c6a)"><path fill="#008cff" d="M 139.109375 244.308594 L 100.761719 244.308594 L 128.304688 186.964844 L 169.777344 270.148438 C 176.023438 281.78125 191.640625 289.742188 207.273438 289.742188 L 230.570312 289.742188 L 128.316406 85.328125 L 26.054688 289.730469 L 93.660156 289.730469 C 118.660156 289.730469 139.109375 269.296875 139.109375 244.308594 Z M 139.109375 244.308594 " fill-opacity="1" fill-rule="nonzero"/></g><g clip-path="url(#556dad601a)"><path fill="#008cff" d="M 241.382812 244.308594 C 241.382812 269.296875 261.546875 289.730469 286.828125 289.730469 L 286.828125 193.496094 L 349.328125 85.328125 L 323.191406 85.328125 C 306.992188 85.328125 292.792969 93.558594 284.84375 106.339844 L 264.113281 142.113281 L 263.828125 142.113281 L 243.085938 106.339844 C 235.136719 93.558594 220.9375 85.328125 205.023438 85.328125 L 178.601562 85.328125 L 241.382812 193.777344 Z M 241.382812 244.308594 " fill-opacity="1" fill-rule="nonzero"/></g></svg>