<svg xmlns="http://www.w3.org/2000/svg" xmlns:xlink="http://www.w3.org/1999/xlink" width="200" zoomAndPan="magnify" viewBox="0 0 150 149.999998" height="200" preserveAspectRatio="xMidYMid meet" version="1.0"><defs><clipPath id="72d75e17b8"><path d="M 3.886719 3.886719 L 146.386719 3.886719 L 146.386719 146.386719 L 3.886719 146.386719 Z M 3.886719 3.886719 " clip-rule="nonzero"/></clipPath><clipPath id="6cae8de917"><path d="M 80 45 L 148.207031 45 L 148.207031 130.839844 L 80 130.839844 Z M 80 45 " clip-rule="nonzero"/></clipPath><clipPath id="a94522dc31"><path d="M 1.957031 19.089844 L 77 19.089844 L 77 111 L 1.957031 111 Z M 1.957031 19.089844 " clip-rule="nonzero"/></clipPath></defs><g clip-path="url(#72d75e17b8)"><path fill="#ffffff" d="M 75.136719 3.886719 C 35.832031 3.886719 3.886719 35.863281 3.886719 75.136719 C 3.886719 114.4375 35.832031 146.386719 75.136719 146.386719 C 114.40625 146.386719 146.386719 114.4375 146.386719 75.136719 C 146.386719 35.863281 114.40625 3.886719 75.136719 3.886719 Z M 75.136719 140.828125 C 38.910156 140.828125 9.441406 111.359375 9.441406 75.136719 C 9.441406 38.910156 38.910156 9.441406 75.136719 9.441406 C 111.359375 9.441406 140.828125 38.910156 140.828125 75.136719 C 140.828125 111.359375 111.359375 140.828125 75.136719 140.828125 Z M 75.136719 140.828125 " fill-opacity="1" fill-rule="nonzero"/></g><path fill="#ffffff" d="M 75.136719 13.148438 C 40.964844 13.148438 13.148438 40.964844 13.148438 75.136719 C 13.148438 109.308594 40.964844 137.121094 75.136719 137.121094 C 109.308594 137.121094 137.121094 109.308594 137.121094 75.136719 C 137.121094 40.964844 109.308594 13.148438 75.136719 13.148438 Z M 75.136719 13.148438 " fill-opacity="1" fill-rule="nonzero"/><g clip-path="url(#6cae8de917)"><path fill="#472183" d="M 148.222656 50.089844 L 116.714844 101.617188 L 116.714844 130.722656 L 99.195312 130.722656 L 99.195312 101.617188 L 80.449219 71.074219 L 93.632812 60.355469 L 112.207031 45.25 L 96.777344 65.882812 L 107.890625 85.417969 L 128.820312 50.089844 Z M 148.222656 50.089844 " fill-opacity="1" fill-rule="nonzero"/></g><g clip-path="url(#a94522dc31)"><path fill="#472183" d="M 54.277344 19.1875 L 34.875 19.1875 L 1.957031 99.820312 L 21.355469 99.820312 L 26.527344 87.140625 L 49.472656 87.140625 L 30.132812 110.402344 L 58.734375 87.140625 L 76.21875 72.925781 Z M 32.527344 72.472656 L 44.515625 43.011719 L 56.507812 72.472656 Z M 32.527344 72.472656 " fill-opacity="1" fill-rule="nonzero"/></g></svg>