<svg xmlns="http://www.w3.org/2000/svg" xmlns:xlink="http://www.w3.org/1999/xlink" width="300" zoomAndPan="magnify" viewBox="0 0 224.87999 149.999998" height="200" preserveAspectRatio="xMidYMid meet" version="1.0"><defs><clipPath id="8d71383cac"><path d="M 123 36 L 210.171875 36 L 210.171875 147 L 123 147 Z M 123 36 " clip-rule="nonzero"/></clipPath><clipPath id="5a2b07f68c"><path d="M 22.019531 3.097656 L 118 3.097656 L 118 121 L 22.019531 121 Z M 22.019531 3.097656 " clip-rule="nonzero"/></clipPath></defs><g clip-path="url(#8d71383cac)"><path fill="#472183" d="M 210.195312 43.023438 L 169.65625 109.386719 L 169.65625 146.871094 L 147.121094 146.871094 L 147.121094 109.386719 L 123 70.050781 L 139.964844 56.246094 L 163.859375 36.789062 L 144.007812 63.363281 L 158.308594 88.527344 L 185.230469 43.023438 Z M 210.195312 43.023438 " fill-opacity="1" fill-rule="nonzero"/></g><g clip-path="url(#5a2b07f68c)"><path fill="#472183" d="M 89.332031 3.226562 L 64.371094 3.226562 L 22.019531 107.070312 L 46.976562 107.070312 L 53.628906 90.746094 L 83.152344 90.746094 L 58.269531 120.699219 L 95.066406 90.746094 L 117.558594 72.433594 Z M 61.347656 71.851562 L 76.773438 33.90625 L 92.199219 71.851562 Z M 61.347656 71.851562 " fill-opacity="1" fill-rule="nonzero"/></g></svg>