<svg xmlns="http://www.w3.org/2000/svg" xmlns:xlink="http://www.w3.org/1999/xlink" width="100" zoomAndPan="magnify" viewBox="0 0 75 74.999997" height="100" preserveAspectRatio="xMidYMid meet" version="1.0"><defs><clipPath id="f294498ba5"><path d="M 39 23 L 72.601562 23 L 72.601562 64.40625 L 39 64.40625 Z M 39 23 " clip-rule="nonzero"/></clipPath><clipPath id="20a8ed3a4a"><path d="M 2.101562 10.40625 L 38 10.40625 L 38 55 L 2.101562 55 Z M 2.101562 10.40625 " clip-rule="nonzero"/></clipPath></defs><g clip-path="url(#f294498ba5)"><path fill="#472183" d="M 72.609375 25.386719 L 57.421875 50.285156 L 57.421875 64.347656 L 48.976562 64.347656 L 48.976562 50.285156 L 39.9375 35.523438 L 46.296875 30.34375 L 55.25 23.046875 L 47.808594 33.015625 L 53.167969 42.457031 L 63.257812 25.386719 Z M 72.609375 25.386719 " fill-opacity="1" fill-rule="nonzero"/></g><g clip-path="url(#20a8ed3a4a)"><path fill="#472183" d="M 27.324219 10.453125 L 17.96875 10.453125 L 2.101562 49.414062 L 11.453125 49.414062 L 13.945312 43.289062 L 25.007812 43.289062 L 15.683594 54.527344 L 29.472656 43.289062 L 37.898438 36.417969 Z M 16.839844 36.199219 L 22.617188 21.964844 L 28.398438 36.199219 Z M 16.839844 36.199219 " fill-opacity="1" fill-rule="nonzero"/></g></svg>