<svg xmlns="http://www.w3.org/2000/svg" xmlns:xlink="http://www.w3.org/1999/xlink" width="500" zoomAndPan="magnify" viewBox="0 0 375 374.999991" height="500" preserveAspectRatio="xMidYMid meet" version="1.0"><defs><g/><clipPath id="78defe7d4a"><path d="M 14.066406 14.066406 L 360.566406 14.066406 L 360.566406 360.566406 L 14.066406 360.566406 Z M 14.066406 14.066406 " clip-rule="nonzero"/></clipPath><clipPath id="29d6fa233e"><path d="M 56.453125 70 L 275 70 L 275 291 L 56.453125 291 Z M 56.453125 70 " clip-rule="nonzero"/></clipPath><clipPath id="14d2a7bae4"><path d="M 204 176 L 331.703125 176 L 331.703125 304 L 204 304 Z M 204 176 " clip-rule="nonzero"/></clipPath><clipPath id="aef80c98c5"><path d="M 25.902344 249.578125 L 374.652344 249.578125 L 374.652344 305.078125 L 25.902344 305.078125 Z M 25.902344 249.578125 " clip-rule="nonzero"/></clipPath></defs><g clip-path="url(#78defe7d4a)"><path fill="#692a68" d="M 360.566406 187.316406 C 360.566406 190.152344 360.496094 192.988281 360.359375 195.820312 C 360.21875 198.648438 360.011719 201.476562 359.734375 204.300781 C 359.457031 207.121094 359.109375 209.933594 358.691406 212.738281 C 358.277344 215.542969 357.792969 218.335938 357.238281 221.117188 C 356.683594 223.898438 356.0625 226.664062 355.375 229.414062 C 354.6875 232.164062 353.929688 234.894531 353.105469 237.609375 C 352.285156 240.324219 351.394531 243.015625 350.441406 245.683594 C 349.484375 248.351562 348.464844 250.996094 347.378906 253.617188 C 346.292969 256.238281 345.144531 258.828125 343.933594 261.390625 C 342.722656 263.953125 341.445312 266.484375 340.109375 268.988281 C 338.773438 271.488281 337.375 273.953125 335.917969 276.386719 C 334.460938 278.816406 332.945312 281.210938 331.371094 283.570312 C 329.792969 285.925781 328.160156 288.246094 326.472656 290.523438 C 324.785156 292.800781 323.039062 295.035156 321.242188 297.226562 C 319.441406 299.417969 317.589844 301.5625 315.6875 303.664062 C 313.78125 305.765625 311.828125 307.820312 309.824219 309.824219 C 307.820312 311.828125 305.765625 313.78125 303.664062 315.6875 C 301.5625 317.589844 299.417969 319.441406 297.226562 321.242188 C 295.035156 323.039062 292.800781 324.785156 290.523438 326.472656 C 288.246094 328.164062 285.925781 329.792969 283.570312 331.371094 C 281.210938 332.945312 278.816406 334.460938 276.386719 335.917969 C 273.953125 337.375 271.488281 338.773438 268.988281 340.109375 C 266.484375 341.445312 263.953125 342.722656 261.390625 343.933594 C 258.828125 345.144531 256.238281 346.292969 253.617188 347.378906 C 250.996094 348.464844 248.351562 349.484375 245.683594 350.441406 C 243.015625 351.394531 240.324219 352.285156 237.609375 353.105469 C 234.894531 353.929688 232.164062 354.6875 229.414062 355.375 C 226.664062 356.0625 223.898438 356.683594 221.117188 357.238281 C 218.335938 357.792969 215.542969 358.277344 212.738281 358.691406 C 209.933594 359.109375 207.121094 359.457031 204.300781 359.734375 C 201.476562 360.011719 198.648438 360.21875 195.820312 360.359375 C 192.988281 360.496094 190.152344 360.566406 187.316406 360.566406 C 184.480469 360.566406 181.648438 360.496094 178.816406 360.359375 C 175.984375 360.21875 173.15625 360.011719 170.335938 359.734375 C 167.515625 359.457031 164.699219 359.109375 161.894531 358.691406 C 159.089844 358.277344 156.300781 357.792969 153.519531 357.238281 C 150.738281 356.683594 147.972656 356.0625 145.222656 355.375 C 142.472656 354.6875 139.738281 353.929688 137.027344 353.105469 C 134.3125 352.285156 131.621094 351.394531 128.953125 350.441406 C 126.28125 349.484375 123.636719 348.464844 121.015625 347.378906 C 118.398438 346.292969 115.808594 345.144531 113.242188 343.933594 C 110.679688 342.722656 108.148438 341.445312 105.648438 340.109375 C 103.148438 338.773438 100.679688 337.375 98.25 335.917969 C 95.816406 334.460938 93.421875 332.945312 91.066406 331.371094 C 88.707031 329.792969 86.390625 328.160156 84.113281 326.472656 C 81.835938 324.785156 79.601562 323.039062 77.410156 321.242188 C 75.21875 319.441406 73.070312 317.589844 70.96875 315.6875 C 68.867188 313.78125 66.816406 311.828125 64.8125 309.824219 C 62.804688 307.820312 60.851562 305.765625 58.949219 303.664062 C 57.042969 301.5625 55.191406 299.417969 53.394531 297.226562 C 51.59375 295.035156 49.851562 292.800781 48.160156 290.523438 C 46.472656 288.246094 44.839844 285.925781 43.265625 283.570312 C 41.691406 281.210938 40.171875 278.816406 38.714844 276.386719 C 37.257812 273.953125 35.859375 271.488281 34.523438 268.988281 C 33.1875 266.484375 31.914062 263.953125 30.703125 261.390625 C 29.488281 258.828125 28.339844 256.238281 27.253906 253.617188 C 26.171875 250.996094 25.148438 248.351562 24.195312 245.683594 C 23.238281 243.015625 22.351562 240.324219 21.527344 237.609375 C 20.703125 234.894531 19.949219 232.164062 19.257812 229.414062 C 18.570312 226.664062 17.949219 223.898438 17.394531 221.117188 C 16.84375 218.335938 16.359375 215.542969 15.941406 212.738281 C 15.527344 209.933594 15.179688 207.121094 14.902344 204.300781 C 14.625 201.476562 14.414062 198.648438 14.277344 195.820312 C 14.136719 192.988281 14.066406 190.152344 14.066406 187.316406 C 14.066406 184.480469 14.136719 181.648438 14.277344 178.816406 C 14.414062 175.984375 14.625 173.15625 14.902344 170.335938 C 15.179688 167.515625 15.527344 164.699219 15.941406 161.894531 C 16.359375 159.089844 16.84375 156.300781 17.394531 153.519531 C 17.949219 150.738281 18.570312 147.972656 19.257812 145.222656 C 19.949219 142.472656 20.703125 139.738281 21.527344 137.027344 C 22.351562 134.3125 23.238281 131.621094 24.195312 128.953125 C 25.148438 126.28125 26.171875 123.636719 27.253906 121.015625 C 28.339844 118.398438 29.488281 115.808594 30.703125 113.242188 C 31.914062 110.679688 33.1875 108.148438 34.523438 105.648438 C 35.859375 103.148438 37.257812 100.679688 38.714844 98.25 C 40.171875 95.816406 41.691406 93.421875 43.265625 91.066406 C 44.839844 88.707031 46.472656 86.390625 48.160156 84.113281 C 49.851562 81.835938 51.59375 79.601562 53.394531 77.410156 C 55.191406 75.21875 57.042969 73.070312 58.949219 70.96875 C 60.851562 68.867188 62.804688 66.816406 64.8125 64.8125 C 66.816406 62.804688 68.867188 60.851562 70.96875 58.949219 C 73.070312 57.042969 75.21875 55.191406 77.410156 53.394531 C 79.601562 51.59375 81.835938 49.851562 84.113281 48.160156 C 86.390625 46.472656 88.707031 44.839844 91.066406 43.265625 C 93.421875 41.691406 95.816406 40.171875 98.25 38.714844 C 100.679688 37.257812 103.148438 35.859375 105.648438 34.523438 C 108.148438 33.1875 110.679688 31.914062 113.242188 30.703125 C 115.808594 29.488281 118.398438 28.339844 121.015625 27.253906 C 123.636719 26.171875 126.28125 25.148438 128.953125 24.195312 C 131.621094 23.238281 134.3125 22.351562 137.027344 21.527344 C 139.738281 20.703125 142.472656 19.949219 145.222656 19.257812 C 147.972656 18.570312 150.738281 17.949219 153.519531 17.394531 C 156.300781 16.84375 159.089844 16.359375 161.894531 15.941406 C 164.699219 15.527344 167.515625 15.179688 170.335938 14.902344 C 173.15625 14.625 175.984375 14.414062 178.816406 14.277344 C 181.648438 14.136719 184.480469 14.066406 187.316406 14.066406 C 190.152344 14.066406 192.988281 14.136719 195.820312 14.277344 C 198.648438 14.414062 201.476562 14.625 204.300781 14.902344 C 207.121094 15.179688 209.933594 15.527344 212.738281 15.941406 C 215.542969 16.359375 218.335938 16.84375 221.117188 17.394531 C 223.898438 17.949219 226.664062 18.570312 229.414062 19.257812 C 232.164062 19.949219 234.894531 20.703125 237.609375 21.527344 C 240.324219 22.351562 243.015625 23.238281 245.683594 24.195312 C 248.351562 25.148438 250.996094 26.171875 253.617188 27.253906 C 256.238281 28.339844 258.828125 29.488281 261.390625 30.703125 C 263.953125 31.914062 266.484375 33.1875 268.988281 34.523438 C 271.488281 35.859375 273.953125 37.257812 276.386719 38.714844 C 278.816406 40.171875 281.210938 41.691406 283.570312 43.265625 C 285.925781 44.839844 288.246094 46.472656 290.523438 48.160156 C 292.800781 49.851562 295.035156 51.59375 297.226562 53.394531 C 299.417969 55.191406 301.5625 57.042969 303.664062 58.949219 C 305.765625 60.851562 307.820312 62.804688 309.824219 64.8125 C 311.828125 66.816406 313.78125 68.867188 315.6875 70.96875 C 317.589844 73.070312 319.441406 75.21875 321.242188 77.410156 C 323.039062 79.601562 324.785156 81.835938 326.472656 84.113281 C 328.164062 86.390625 329.792969 88.707031 331.371094 91.066406 C 332.945312 93.421875 334.460938 95.816406 335.917969 98.25 C 337.375 100.679688 338.773438 103.148438 340.109375 105.648438 C 341.445312 108.148438 342.722656 110.679688 343.933594 113.242188 C 345.144531 115.808594 346.292969 118.398438 347.378906 121.015625 C 348.464844 123.636719 349.484375 126.28125 350.441406 128.953125 C 351.394531 131.621094 352.285156 134.3125 353.105469 137.027344 C 353.929688 139.738281 354.6875 142.472656 355.375 145.222656 C 356.0625 147.972656 356.683594 150.738281 357.238281 153.519531 C 357.792969 156.300781 358.277344 159.089844 358.691406 161.894531 C 359.109375 164.699219 359.457031 167.515625 359.734375 170.335938 C 360.011719 173.15625 360.21875 175.984375 360.359375 178.816406 C 360.496094 181.648438 360.566406 184.480469 360.566406 187.316406 Z M 360.566406 187.316406 " fill-opacity="1" fill-rule="nonzero"/></g><g clip-path="url(#29d6fa233e)"><path fill="#ffffff" d="M 121.59375 70.660156 C 116.246094 70.660156 111.925781 74.972656 111.925781 80.351562 L 111.925781 113.339844 C 111.925781 118.710938 116.246094 123.027344 121.59375 123.027344 C 126.957031 123.027344 131.277344 118.710938 131.277344 113.339844 L 131.277344 102.09375 C 135.699219 105.226562 138.347656 110.316406 138.347656 115.761719 C 138.347656 125.023438 130.84375 132.53125 121.59375 132.53125 C 112.339844 132.53125 104.835938 125.023438 104.835938 115.761719 L 104.835938 88.046875 L 92.976562 88.046875 C 86.371094 88.046875 80.082031 89.71875 75.167969 93.625 C 70.226562 97.550781 67.113281 103.632812 66.457031 110.582031 L 56.777344 263.257812 C 56.347656 270.277344 57.902344 277.054688 62.066406 282.1875 C 66.230469 287.308594 72.835938 290.523438 80.136719 290.523438 L 212.40625 290.523438 C 208.410156 286.109375 204.882812 281.265625 202.03125 276.011719 L 81.769531 276.011719 C 78.207031 276.011719 76.046875 274.769531 74.417969 272.761719 C 72.785156 270.773438 71.921875 267.746094 72.125 263.898438 L 78.261719 144.777344 L 259.132812 144.777344 L 260.199219 165.453125 C 262.753906 165.191406 265.34375 165.0625 267.972656 165.0625 C 270.109375 165.0625 272.265625 165.171875 274.402344 165.339844 L 270.933594 110.585938 C 270.253906 103.636719 267.160156 97.554688 262.226562 93.628906 C 257.3125 89.722656 251.023438 88.050781 244.417969 88.050781 L 225.464844 88.050781 L 225.464844 80.351562 C 225.464844 74.976562 221.148438 70.664062 215.78125 70.664062 C 210.4375 70.664062 206.125 74.976562 206.125 80.351562 L 206.125 113.339844 C 206.125 118.710938 210.4375 123.027344 215.78125 123.027344 C 221.148438 123.027344 225.464844 118.710938 225.464844 113.339844 L 225.464844 102.09375 C 229.894531 105.226562 232.542969 110.316406 232.554688 115.761719 C 232.554688 125.023438 225.050781 132.53125 215.78125 132.53125 C 206.53125 132.53125 199.027344 125.023438 199.027344 115.761719 L 199.027344 88.046875 L 131.277344 88.046875 L 131.277344 80.351562 C 131.277344 74.976562 126.957031 70.660156 121.59375 70.660156 Z M 121.59375 70.660156 " fill-opacity="1" fill-rule="evenodd"/></g><g clip-path="url(#14d2a7bae4)"><path fill="#ffffff" d="M 267.972656 176.578125 C 232.898438 176.578125 204.472656 205.0625 204.472656 240.214844 C 204.472656 275.347656 232.902344 303.835938 267.972656 303.835938 C 284.800781 303.835938 300.957031 297.148438 312.851562 285.207031 C 324.75 273.265625 331.445312 257.097656 331.445312 240.214844 C 331.445312 223.339844 324.746094 207.148438 312.851562 195.207031 C 300.957031 183.285156 284.800781 176.578125 267.972656 176.578125 Z M 267.972656 192.320312 C 280.636719 192.320312 292.796875 197.367188 301.746094 206.347656 C 310.714844 215.34375 315.742188 227.507812 315.742188 240.21875 C 315.742188 252.914062 310.714844 265.097656 301.746094 274.074219 C 292.796875 283.070312 280.636719 288.101562 267.972656 288.101562 C 241.566406 288.101562 220.171875 266.660156 220.171875 240.222656 C 220.175781 213.757812 241.566406 192.320312 267.972656 192.320312 Z M 267.972656 192.320312 " fill-opacity="1" fill-rule="evenodd"/></g><path fill="#ffffff" d="M 103.636719 169.464844 L 127.671875 169.464844 C 131.199219 169.464844 134.054688 172.296875 134.054688 175.828125 L 134.054688 194.605469 C 134.054688 198.136719 131.199219 200.96875 127.671875 200.96875 L 103.636719 200.96875 C 100.105469 200.96875 97.25 198.132812 97.25 194.605469 L 97.25 175.828125 C 97.25 172.296875 100.105469 169.464844 103.636719 169.464844 Z M 103.636719 169.464844 " fill-opacity="1" fill-rule="evenodd"/><path fill="#ffffff" d="M 156.683594 169.464844 L 180.714844 169.464844 C 184.246094 169.464844 187.101562 172.296875 187.101562 175.828125 L 187.101562 194.605469 C 187.101562 198.136719 184.246094 200.96875 180.714844 200.96875 L 156.683594 200.96875 C 153.152344 200.96875 150.296875 198.132812 150.296875 194.605469 L 150.296875 175.828125 C 150.296875 172.296875 153.152344 169.464844 156.683594 169.464844 Z M 156.683594 169.464844 " fill-opacity="1" fill-rule="evenodd"/><path fill="#ffffff" d="M 209.730469 169.464844 C 206.199219 169.464844 203.34375 172.296875 203.34375 175.828125 L 203.34375 194.605469 C 203.34375 196.367188 204.0625 197.984375 205.222656 199.132812 C 213.234375 186.910156 224.679688 177.140625 238.191406 171.269531 C 237.050781 170.160156 235.492188 169.464844 233.761719 169.464844 Z M 209.730469 169.464844 " fill-opacity="1" fill-rule="evenodd"/><path fill="#ffffff" d="M 103.636719 219.804688 L 127.671875 219.804688 C 131.199219 219.804688 134.054688 222.660156 134.054688 226.191406 L 134.054688 244.953125 C 134.054688 248.480469 131.199219 251.335938 127.671875 251.335938 L 103.636719 251.335938 C 100.105469 251.335938 97.25 248.480469 97.25 244.953125 L 97.25 226.191406 C 97.25 222.660156 100.105469 219.804688 103.636719 219.804688 Z M 103.636719 219.804688 " fill-opacity="1" fill-rule="evenodd"/><path fill="#ffffff" d="M 156.683594 219.804688 L 180.714844 219.804688 C 184.246094 219.804688 187.101562 222.660156 187.101562 226.191406 L 187.101562 244.953125 C 187.101562 248.480469 184.246094 251.335938 180.714844 251.335938 L 156.683594 251.335938 C 153.152344 251.335938 150.296875 248.480469 150.296875 244.953125 L 150.296875 226.191406 C 150.296875 222.660156 153.152344 219.804688 156.683594 219.804688 Z M 156.683594 219.804688 " fill-opacity="1" fill-rule="evenodd"/><path fill="#ffffff" d="M 267.40625 199.582031 C 264.59375 199.621094 262.34375 201.945312 262.375 204.761719 L 262.433594 242.257812 L 283.039062 262.785156 C 285.027344 264.828125 288.332031 264.847656 290.339844 262.800781 C 292.347656 260.773438 292.289062 257.484375 290.226562 255.515625 L 272.625 237.996094 L 272.585938 204.738281 C 272.621094 201.875 270.277344 199.53125 267.40625 199.582031 Z M 267.40625 199.582031 " fill-opacity="1" fill-rule="nonzero"/><g clip-path="url(#aef80c98c5)"><path fill="#ffffff" d="M 25.910156 249.613281 L 374.644531 249.613281 L 374.644531 329.859375 L 25.910156 329.859375 Z M 25.910156 249.613281 " fill-opacity="1" fill-rule="nonzero"/></g><g fill="#692a68" fill-opacity="1"><g transform="translate(160.475092, 296.898701)"><g><path d="M 26.621094 0 L 35.433594 0 L 21.933594 -37.496094 L 12.6875 -37.496094 L -0.8125 0 L 8 0 L 10.3125 -7.0625 L 24.308594 -7.0625 Z M 12.5 -13.9375 L 17.3125 -28.808594 L 22.121094 -13.9375 Z M 12.5 -13.9375 "/></g></g></g><g fill="#692a68" fill-opacity="1"><g transform="translate(195.094703, 296.898701)"><g><path d="M 33.683594 -37.496094 L 24.496094 -37.496094 L 16.5 -24.808594 L 8.5 -37.496094 L -0.8125 -37.496094 L 12.375 -17.625 L 12.375 0 L 20.621094 0 L 20.621094 -17.6875 Z M 33.683594 -37.496094 "/></g></g></g></svg>