<svg xmlns="http://www.w3.org/2000/svg" xmlns:xlink="http://www.w3.org/1999/xlink" width="529" zoomAndPan="magnify" viewBox="0 0 396.75 283.499996" height="377" preserveAspectRatio="xMidYMid meet" version="1.0"><defs><clipPath id="9d893617cf"><path d="M 23 7 L 373.597656 7 L 373.597656 216 L 23 216 Z M 23 7 " clip-rule="nonzero"/></clipPath><clipPath id="d536d020a4"><path d="M 23.757812 101.519531 C 12.882812 132.277344 27.613281 166.28125 57.125 180.21875 C 79.882812 190.964844 119.183594 205.972656 172.484375 213.203125 C 260.695312 225.171875 340.558594 195.316406 362.089844 154.070312 C 383.617188 112.828125 378.699219 52.4375 314.835938 23.285156 C 250.972656 -5.867188 158.554688 7.320312 141.15625 39.945312 C 123.761719 72.570312 93.238281 72.933594 55.78125 73.792969 C 40.175781 74.148438 29.261719 85.953125 23.757812 101.519531 Z M 23.757812 101.519531 " clip-rule="nonzero"/></clipPath><clipPath id="3fb29e2dc4"><path d="M 64 7 L 101 7 L 101 216 L 64 216 Z M 64 7 " clip-rule="nonzero"/></clipPath><clipPath id="85fb8c6871"><path d="M 23.757812 101.519531 C 12.882812 132.277344 27.613281 166.28125 57.125 180.21875 C 79.882812 190.964844 119.183594 205.972656 172.484375 213.203125 C 260.695312 225.171875 340.558594 195.316406 362.089844 154.070312 C 383.617188 112.828125 378.699219 52.4375 314.835938 23.285156 C 250.972656 -5.867188 158.554688 7.320312 141.15625 39.945312 C 123.761719 72.570312 93.238281 72.933594 55.78125 73.792969 C 40.175781 74.148438 29.261719 85.953125 23.757812 101.519531 Z M 23.757812 101.519531 " clip-rule="nonzero"/></clipPath><clipPath id="0e03419b91"><path d="M 110 148 L 173 148 L 173 216 L 110 216 Z M 110 148 " clip-rule="nonzero"/></clipPath><clipPath id="e8162726c1"><path d="M 23.757812 101.519531 C 12.882812 132.277344 27.613281 166.28125 57.125 180.21875 C 79.882812 190.964844 119.183594 205.972656 172.484375 213.203125 C 260.695312 225.171875 340.558594 195.316406 362.089844 154.070312 C 383.617188 112.828125 378.699219 52.4375 314.835938 23.285156 C 250.972656 -5.867188 158.554688 7.320312 141.15625 39.945312 C 123.761719 72.570312 93.238281 72.933594 55.78125 73.792969 C 40.175781 74.148438 29.261719 85.953125 23.757812 101.519531 Z M 23.757812 101.519531 " clip-rule="nonzero"/></clipPath><clipPath id="ac1389b423"><path d="M 196 7 L 323 7 L 323 107 L 196 107 Z M 196 7 " clip-rule="nonzero"/></clipPath><clipPath id="d03cb45abe"><path d="M 23.757812 101.519531 C 12.882812 132.277344 27.613281 166.28125 57.125 180.21875 C 79.882812 190.964844 119.183594 205.972656 172.484375 213.203125 C 260.695312 225.171875 340.558594 195.316406 362.089844 154.070312 C 383.617188 112.828125 378.699219 52.4375 314.835938 23.285156 C 250.972656 -5.867188 158.554688 7.320312 141.15625 39.945312 C 123.761719 72.570312 93.238281 72.933594 55.78125 73.792969 C 40.175781 74.148438 29.261719 85.953125 23.757812 101.519531 Z M 23.757812 101.519531 " clip-rule="nonzero"/></clipPath><clipPath id="957b0cd981"><path d="M 203 7 L 317 7 L 317 99 L 203 99 Z M 203 7 " clip-rule="nonzero"/></clipPath><clipPath id="c8745f4b19"><path d="M 23.757812 101.519531 C 12.882812 132.277344 27.613281 166.28125 57.125 180.21875 C 79.882812 190.964844 119.183594 205.972656 172.484375 213.203125 C 260.695312 225.171875 340.558594 195.316406 362.089844 154.070312 C 383.617188 112.828125 378.699219 52.4375 314.835938 23.285156 C 250.972656 -5.867188 158.554688 7.320312 141.15625 39.945312 C 123.761719 72.570312 93.238281 72.933594 55.78125 73.792969 C 40.175781 74.148438 29.261719 85.953125 23.757812 101.519531 Z M 23.757812 101.519531 " clip-rule="nonzero"/></clipPath><clipPath id="140c699a78"><path d="M 256 7 L 264 7 L 264 107 L 256 107 Z M 256 7 " clip-rule="nonzero"/></clipPath><clipPath id="eda62573c5"><path d="M 23.757812 101.519531 C 12.882812 132.277344 27.613281 166.28125 57.125 180.21875 C 79.882812 190.964844 119.183594 205.972656 172.484375 213.203125 C 260.695312 225.171875 340.558594 195.316406 362.089844 154.070312 C 383.617188 112.828125 378.699219 52.4375 314.835938 23.285156 C 250.972656 -5.867188 158.554688 7.320312 141.15625 39.945312 C 123.761719 72.570312 93.238281 72.933594 55.78125 73.792969 C 40.175781 74.148438 29.261719 85.953125 23.757812 101.519531 Z M 23.757812 101.519531 " clip-rule="nonzero"/></clipPath></defs><g clip-path="url(#9d893617cf)"><g clip-path="url(#d536d020a4)"><path fill="#f4f4fd" d="M 23.011719 -3.898438 L 373.597656 -3.898438 L 373.597656 265.144531 L 23.011719 265.144531 Z M 23.011719 -3.898438 " fill-opacity="1" fill-rule="nonzero"/></g></g><g clip-path="url(#3fb29e2dc4)"><g clip-path="url(#85fb8c6871)"><path fill="#dad9e7" d="M 64.113281 -3.898438 L 100.765625 -3.898438 L 100.765625 219.917969 L 64.113281 219.917969 Z M 64.113281 -3.898438 " fill-opacity="1" fill-rule="nonzero"/></g></g><g clip-path="url(#0e03419b91)"><g clip-path="url(#e8162726c1)"><path fill="#dad9e7" d="M 172.542969 219.917969 L 110.050781 219.917969 L 110.050781 148.179688 L 172.542969 148.179688 Z M 172.542969 219.917969 " fill-opacity="1" fill-rule="nonzero"/></g></g><g clip-path="url(#ac1389b423)"><g clip-path="url(#d03cb45abe)"><path fill="#dad9e7" d="M 196.9375 -3.898438 L 322.761719 -3.898438 L 322.761719 106.285156 L 196.9375 106.285156 Z M 196.9375 -3.898438 " fill-opacity="1" fill-rule="nonzero"/></g></g><g clip-path="url(#957b0cd981)"><g clip-path="url(#c8745f4b19)"><path fill="#dad9e7" d="M 203.546875 -3.898438 L 316.152344 -3.898438 L 316.152344 98.644531 L 203.546875 98.644531 Z M 203.546875 -3.898438 " fill-opacity="1" fill-rule="nonzero"/><path fill="#f4f4fd" d="M 203.546875 -3.898438 L 316.152344 -3.898438 L 316.152344 98.644531 L 203.546875 98.644531 Z M 203.546875 -3.898438 " fill-opacity="1" fill-rule="nonzero"/></g></g><g clip-path="url(#140c699a78)"><g clip-path="url(#eda62573c5)"><path fill="#dad9e7" d="M 256.546875 -3.898438 L 263.152344 -3.898438 L 263.152344 106.285156 L 256.546875 106.285156 Z M 256.546875 -3.898438 " fill-opacity="1" fill-rule="nonzero"/></g></g><path stroke-linecap="butt" transform="matrix(0.721257, 0, 0, 0.720884, 16.577273, 3.858434)" fill-opacity="1" fill="#ffffff" fill-rule="nonzero" stroke-linejoin="miter" d="M 132.723114 189.942884 L 132.723114 218.331436 C 132.723114 223.018609 128.926571 226.800859 124.252653 226.800859 L 46.832429 226.800859 C 42.153095 226.800859 38.361968 223.018609 38.361968 218.331436 L 38.361968 189.942884 Z M 132.723114 189.942884 " stroke="#1c2e3f" stroke-width="1" stroke-opacity="1" stroke-miterlimit="10"/><path stroke-linecap="butt" transform="matrix(0.721257, 0, 0, 0.720884, 16.577273, 3.858434)" fill-opacity="1" fill="#d25455" fill-rule="nonzero" stroke-linejoin="miter" d="M 132.723114 169.286812 L 132.723114 189.942884 L 38.361968 189.942884 L 38.361968 169.286812 C 38.361968 164.610476 42.153095 160.817389 46.832429 160.817389 L 124.252653 160.817389 C 128.926571 160.817389 132.723114 164.610476 132.723114 169.286812 Z M 132.723114 169.286812 " stroke="#1c2e3f" stroke-width="1" stroke-opacity="1" stroke-miterlimit="10"/><path stroke-linecap="round" transform="matrix(0.721257, 0, 0, 0.720884, 16.577273, 3.858434)" fill="none" stroke-linejoin="round" d="M 60.133868 157.934642 L 60.133868 164.317867 " stroke="#1c2e3f" stroke-width="4" stroke-opacity="1" stroke-miterlimit="4"/><path stroke-linecap="round" transform="matrix(0.721257, 0, 0, 0.720884, 16.577273, 3.858434)" fill="none" stroke-linejoin="round" d="M 110.951214 157.934642 L 110.951214 164.317867 " stroke="#1c2e3f" stroke-width="4" stroke-opacity="1" stroke-miterlimit="4"/><path fill="#1996f2" d="M 57.296875 148.28125 L 62.597656 148.28125 C 62.796875 148.28125 62.992188 148.320312 63.179688 148.394531 C 63.363281 148.472656 63.527344 148.582031 63.671875 148.722656 C 63.8125 148.867188 63.921875 149.03125 64 149.214844 C 64.074219 149.402344 64.113281 149.597656 64.113281 149.796875 C 64.113281 150 64.074219 150.191406 64 150.378906 C 63.921875 150.5625 63.8125 150.726562 63.671875 150.871094 C 63.527344 151.011719 63.363281 151.121094 63.179688 151.199219 C 62.992188 151.273438 62.796875 151.3125 62.597656 151.3125 L 57.296875 151.3125 C 57.097656 151.3125 56.902344 151.273438 56.71875 151.199219 C 56.53125 151.121094 56.367188 151.011719 56.226562 150.871094 C 56.082031 150.726562 55.972656 150.5625 55.898438 150.378906 C 55.820312 150.191406 55.78125 150 55.78125 149.796875 C 55.78125 149.597656 55.820312 149.402344 55.898438 149.214844 C 55.972656 149.03125 56.082031 148.867188 56.226562 148.722656 C 56.367188 148.582031 56.53125 148.472656 56.71875 148.394531 C 56.902344 148.320312 57.097656 148.28125 57.296875 148.28125 Z M 57.296875 148.28125 " fill-opacity="1" fill-rule="nonzero"/><path fill="#1996f2" d="M 57.296875 154.386719 L 62.597656 154.386719 C 62.796875 154.386719 62.992188 154.425781 63.179688 154.5 C 63.363281 154.578125 63.527344 154.6875 63.671875 154.832031 C 63.8125 154.972656 63.921875 155.136719 64 155.324219 C 64.074219 155.507812 64.113281 155.703125 64.113281 155.902344 C 64.113281 156.105469 64.074219 156.296875 64 156.484375 C 63.921875 156.667969 63.8125 156.832031 63.671875 156.976562 C 63.527344 157.117188 63.363281 157.226562 63.179688 157.304688 C 62.992188 157.382812 62.796875 157.417969 62.597656 157.417969 L 57.296875 157.417969 C 57.097656 157.417969 56.902344 157.382812 56.71875 157.304688 C 56.53125 157.226562 56.367188 157.117188 56.226562 156.976562 C 56.082031 156.832031 55.972656 156.667969 55.898438 156.484375 C 55.820312 156.296875 55.78125 156.105469 55.78125 155.902344 C 55.78125 155.703125 55.820312 155.507812 55.898438 155.324219 C 55.972656 155.136719 56.082031 154.972656 56.226562 154.832031 C 56.367188 154.6875 56.53125 154.578125 56.71875 154.5 C 56.902344 154.425781 57.097656 154.386719 57.296875 154.386719 Z M 57.296875 154.386719 " fill-opacity="1" fill-rule="nonzero"/><path fill="#1996f2" d="M 75.625 148.28125 L 80.921875 148.28125 C 81.125 148.28125 81.316406 148.320312 81.503906 148.394531 C 81.691406 148.472656 81.855469 148.582031 81.996094 148.722656 C 82.140625 148.867188 82.25 149.03125 82.324219 149.214844 C 82.402344 149.402344 82.441406 149.597656 82.441406 149.796875 C 82.441406 150 82.402344 150.191406 82.324219 150.378906 C 82.25 150.5625 82.140625 150.726562 81.996094 150.871094 C 81.855469 151.011719 81.691406 151.121094 81.503906 151.199219 C 81.316406 151.273438 81.125 151.3125 80.921875 151.3125 L 75.625 151.3125 C 75.425781 151.3125 75.230469 151.273438 75.042969 151.199219 C 74.859375 151.121094 74.695312 151.011719 74.550781 150.871094 C 74.410156 150.726562 74.300781 150.5625 74.222656 150.378906 C 74.144531 150.191406 74.109375 150 74.109375 149.796875 C 74.109375 149.597656 74.144531 149.402344 74.222656 149.214844 C 74.300781 149.03125 74.410156 148.867188 74.550781 148.722656 C 74.695312 148.582031 74.859375 148.472656 75.042969 148.394531 C 75.230469 148.320312 75.425781 148.28125 75.625 148.28125 Z M 75.625 148.28125 " fill-opacity="1" fill-rule="nonzero"/><path fill="#1996f2" d="M 75.625 154.386719 L 80.921875 154.386719 C 81.125 154.386719 81.316406 154.425781 81.503906 154.5 C 81.691406 154.578125 81.855469 154.6875 81.996094 154.832031 C 82.140625 154.972656 82.25 155.136719 82.324219 155.324219 C 82.402344 155.507812 82.441406 155.703125 82.441406 155.902344 C 82.441406 156.105469 82.402344 156.296875 82.324219 156.484375 C 82.25 156.667969 82.140625 156.832031 81.996094 156.976562 C 81.855469 157.117188 81.691406 157.226562 81.503906 157.304688 C 81.316406 157.382812 81.125 157.417969 80.921875 157.417969 L 75.625 157.417969 C 75.425781 157.417969 75.230469 157.382812 75.042969 157.304688 C 74.859375 157.226562 74.695312 157.117188 74.550781 156.976562 C 74.410156 156.832031 74.300781 156.667969 74.222656 156.484375 C 74.144531 156.296875 74.109375 156.105469 74.109375 155.902344 C 74.109375 155.703125 74.144531 155.507812 74.222656 155.324219 C 74.300781 155.136719 74.410156 154.972656 74.550781 154.832031 C 74.695312 154.6875 74.859375 154.578125 75.042969 154.5 C 75.230469 154.425781 75.425781 154.386719 75.625 154.386719 Z M 75.625 154.386719 " fill-opacity="1" fill-rule="nonzero"/><path fill="#1996f2" d="M 93.953125 148.28125 L 99.25 148.28125 C 99.449219 148.28125 99.644531 148.320312 99.832031 148.394531 C 100.015625 148.472656 100.179688 148.582031 100.324219 148.722656 C 100.464844 148.867188 100.574219 149.03125 100.652344 149.214844 C 100.730469 149.402344 100.765625 149.597656 100.765625 149.796875 C 100.765625 150 100.730469 150.191406 100.652344 150.378906 C 100.574219 150.5625 100.464844 150.726562 100.324219 150.871094 C 100.179688 151.011719 100.015625 151.121094 99.832031 151.199219 C 99.644531 151.273438 99.449219 151.3125 99.25 151.3125 L 93.953125 151.3125 C 93.75 151.3125 93.558594 151.273438 93.371094 151.199219 C 93.183594 151.121094 93.019531 151.011719 92.878906 150.871094 C 92.734375 150.726562 92.625 150.5625 92.550781 150.378906 C 92.472656 150.191406 92.433594 150 92.433594 149.796875 C 92.433594 149.597656 92.472656 149.402344 92.550781 149.214844 C 92.625 149.03125 92.734375 148.867188 92.878906 148.722656 C 93.019531 148.582031 93.183594 148.472656 93.371094 148.394531 C 93.558594 148.320312 93.75 148.28125 93.953125 148.28125 Z M 93.953125 148.28125 " fill-opacity="1" fill-rule="nonzero"/><path fill="#1996f2" d="M 93.953125 154.386719 L 99.25 154.386719 C 99.449219 154.386719 99.644531 154.425781 99.832031 154.5 C 100.015625 154.578125 100.179688 154.6875 100.324219 154.832031 C 100.464844 154.972656 100.574219 155.136719 100.652344 155.324219 C 100.730469 155.507812 100.765625 155.703125 100.765625 155.902344 C 100.765625 156.105469 100.730469 156.296875 100.652344 156.484375 C 100.574219 156.667969 100.464844 156.832031 100.324219 156.976562 C 100.179688 157.117188 100.015625 157.226562 99.832031 157.304688 C 99.644531 157.382812 99.449219 157.417969 99.25 157.417969 L 93.953125 157.417969 C 93.75 157.417969 93.558594 157.382812 93.371094 157.304688 C 93.183594 157.226562 93.019531 157.117188 92.878906 156.976562 C 92.734375 156.832031 92.625 156.667969 92.550781 156.484375 C 92.472656 156.296875 92.433594 156.105469 92.433594 155.902344 C 92.433594 155.703125 92.472656 155.507812 92.550781 155.324219 C 92.625 155.136719 92.734375 154.972656 92.878906 154.832031 C 93.019531 154.6875 93.183594 154.578125 93.371094 154.5 C 93.558594 154.425781 93.75 154.386719 93.953125 154.386719 Z M 93.953125 154.386719 " fill-opacity="1" fill-rule="nonzero"/><path stroke-linecap="round" transform="matrix(0.721257, 0, 0, 0.720884, 16.577273, 3.858434)" fill="none" stroke-linejoin="round" d="M 87.413733 232.468816 C 87.413733 232.468816 88.421089 247.982545 103.829312 246.481566 " stroke="#1c2e3f" stroke-width="1" stroke-opacity="1" stroke-miterlimit="4"/><path stroke-linecap="round" transform="matrix(0.721257, 0, 0, 0.720884, 16.577273, 3.858434)" fill="none" stroke-linejoin="round" d="M 97.40606 151.302157 C 97.40606 151.302157 101.262177 135.647542 113.025502 132.867751 " stroke="#1c2e3f" stroke-width="1" stroke-opacity="1" stroke-miterlimit="4"/><path stroke-linecap="butt" transform="matrix(0.721257, 0, 0, 0.720884, 16.577273, 3.858434)" fill-opacity="1" fill="#ffffff" fill-rule="nonzero" stroke-linejoin="miter" d="M 185.333122 80.100481 L 185.333122 109.664891 C 185.333122 113.70182 182.056505 116.974713 178.021663 116.974713 L 93.858648 116.974713 C 89.823806 116.974713 86.54719 113.70182 86.54719 109.664891 L 86.54719 80.100481 Z M 185.333122 80.100481 " stroke="#1c2e3f" stroke-width="1" stroke-opacity="1" stroke-miterlimit="10"/><path fill="#d25455" d="M 87.824219 67.707031 L 92.394531 67.707031 C 92.570312 67.707031 92.738281 67.742188 92.898438 67.808594 C 93.058594 67.875 93.199219 67.96875 93.320312 68.089844 C 93.445312 68.214844 93.539062 68.355469 93.605469 68.515625 C 93.671875 68.675781 93.707031 68.84375 93.707031 69.015625 C 93.707031 69.1875 93.671875 69.355469 93.605469 69.515625 C 93.539062 69.675781 93.445312 69.820312 93.320312 69.941406 C 93.199219 70.0625 93.058594 70.160156 92.898438 70.226562 C 92.738281 70.292969 92.570312 70.324219 92.394531 70.324219 L 87.824219 70.324219 C 87.652344 70.324219 87.484375 70.292969 87.324219 70.226562 C 87.164062 70.160156 87.019531 70.0625 86.898438 69.941406 C 86.777344 69.820312 86.679688 69.675781 86.613281 69.515625 C 86.546875 69.355469 86.515625 69.1875 86.515625 69.015625 C 86.515625 68.84375 86.546875 68.675781 86.613281 68.515625 C 86.679688 68.355469 86.777344 68.214844 86.898438 68.089844 C 87.019531 67.96875 87.164062 67.875 87.324219 67.808594 C 87.484375 67.742188 87.652344 67.707031 87.824219 67.707031 Z M 87.824219 67.707031 " fill-opacity="1" fill-rule="nonzero"/><path fill="#d25455" d="M 87.824219 72.976562 L 92.394531 72.976562 C 92.570312 72.976562 92.738281 73.007812 92.898438 73.074219 C 93.058594 73.140625 93.199219 73.238281 93.320312 73.359375 C 93.445312 73.480469 93.539062 73.625 93.605469 73.785156 C 93.671875 73.945312 93.707031 74.109375 93.707031 74.285156 C 93.707031 74.457031 93.671875 74.625 93.605469 74.785156 C 93.539062 74.945312 93.445312 75.085938 93.320312 75.210938 C 93.199219 75.332031 93.058594 75.425781 92.898438 75.492188 C 92.738281 75.558594 92.570312 75.59375 92.394531 75.59375 L 87.824219 75.59375 C 87.652344 75.59375 87.484375 75.558594 87.324219 75.492188 C 87.164062 75.425781 87.019531 75.332031 86.898438 75.210938 C 86.777344 75.085938 86.679688 74.945312 86.613281 74.785156 C 86.546875 74.625 86.515625 74.457031 86.515625 74.285156 C 86.515625 74.109375 86.546875 73.945312 86.613281 73.785156 C 86.679688 73.625 86.777344 73.480469 86.898438 73.359375 C 87.019531 73.238281 87.164062 73.140625 87.324219 73.074219 C 87.484375 73.007812 87.652344 72.976562 87.824219 72.976562 Z M 87.824219 72.976562 " fill-opacity="1" fill-rule="nonzero"/><path fill="#d25455" d="M 87.824219 78.246094 L 92.394531 78.246094 C 92.570312 78.246094 92.738281 78.277344 92.898438 78.34375 C 93.058594 78.410156 93.199219 78.503906 93.320312 78.628906 C 93.445312 78.75 93.539062 78.890625 93.605469 79.050781 C 93.671875 79.210938 93.707031 79.378906 93.707031 79.554688 C 93.707031 79.726562 93.671875 79.894531 93.605469 80.054688 C 93.539062 80.214844 93.445312 80.355469 93.320312 80.476562 C 93.199219 80.601562 93.058594 80.695312 92.898438 80.761719 C 92.738281 80.828125 92.570312 80.863281 92.394531 80.863281 L 87.824219 80.863281 C 87.652344 80.863281 87.484375 80.828125 87.324219 80.761719 C 87.164062 80.695312 87.019531 80.601562 86.898438 80.476562 C 86.777344 80.355469 86.679688 80.214844 86.613281 80.054688 C 86.546875 79.894531 86.515625 79.726562 86.515625 79.554688 C 86.515625 79.378906 86.546875 79.210938 86.613281 79.050781 C 86.679688 78.890625 86.777344 78.75 86.898438 78.628906 C 87.019531 78.503906 87.164062 78.410156 87.324219 78.34375 C 87.484375 78.277344 87.652344 78.246094 87.824219 78.246094 Z M 87.824219 78.246094 " fill-opacity="1" fill-rule="nonzero"/><path stroke-linecap="butt" transform="matrix(0.721257, 0, 0, 0.720884, 16.577273, 3.858434)" fill-opacity="1" fill="#1996f2" fill-rule="nonzero" stroke-linejoin="miter" d="M 185.333122 67.83797 L 185.333122 80.100481 L 86.54719 80.100481 L 86.54719 67.83797 C 86.54719 63.80646 89.823806 60.528148 93.858648 60.528148 L 178.021663 60.528148 C 182.056505 60.528148 185.333122 63.80646 185.333122 67.83797 Z M 185.333122 67.83797 " stroke="#1c2e3f" stroke-width="1" stroke-opacity="1" stroke-miterlimit="10"/><path fill="#d25455" d="M 108.167969 70.324219 L 116.71875 70.324219 L 116.71875 80.863281 L 108.167969 80.863281 Z M 108.167969 70.324219 " fill-opacity="1" fill-rule="nonzero"/><path fill="#d25455" d="M 119.230469 67.707031 L 127.78125 67.707031 L 127.78125 80.863281 L 119.230469 80.863281 Z M 119.230469 67.707031 " fill-opacity="1" fill-rule="nonzero"/><path fill="#d25455" d="M 130.089844 67.707031 L 138.640625 67.707031 L 138.640625 80.863281 L 130.089844 80.863281 Z M 130.089844 67.707031 " fill-opacity="1" fill-rule="nonzero"/><path fill="#ffcd5c" d="M 276.667969 65.742188 L 309.398438 65.742188 C 309.730469 65.742188 310.058594 65.777344 310.382812 65.839844 C 310.707031 65.90625 311.023438 66 311.328125 66.128906 C 311.636719 66.253906 311.925781 66.410156 312.203125 66.59375 C 312.476562 66.777344 312.734375 66.988281 312.96875 67.222656 C 313.203125 67.457031 313.410156 67.710938 313.59375 67.984375 C 313.78125 68.261719 313.933594 68.550781 314.0625 68.859375 C 314.1875 69.164062 314.285156 69.480469 314.347656 69.804688 C 314.414062 70.128906 314.445312 70.457031 314.445312 70.789062 L 314.445312 84.179688 C 314.445312 84.511719 314.414062 84.839844 314.347656 85.164062 C 314.285156 85.492188 314.1875 85.804688 314.0625 86.113281 C 313.933594 86.417969 313.78125 86.710938 313.59375 86.984375 C 313.410156 87.261719 313.203125 87.515625 312.96875 87.75 C 312.734375 87.984375 312.476562 88.191406 312.203125 88.378906 C 311.925781 88.5625 311.636719 88.714844 311.328125 88.84375 C 311.023438 88.96875 310.707031 89.066406 310.382812 89.128906 C 310.058594 89.195312 309.730469 89.226562 309.398438 89.226562 L 276.667969 89.226562 C 276.339844 89.226562 276.007812 89.195312 275.683594 89.128906 C 275.359375 89.066406 275.042969 88.96875 274.738281 88.84375 C 274.429688 88.714844 274.140625 88.5625 273.863281 88.378906 C 273.589844 88.191406 273.332031 87.984375 273.097656 87.75 C 272.863281 87.515625 272.65625 87.261719 272.472656 86.984375 C 272.289062 86.710938 272.132812 86.417969 272.003906 86.113281 C 271.878906 85.804688 271.78125 85.492188 271.71875 85.164062 C 271.652344 84.839844 271.621094 84.511719 271.621094 84.179688 L 271.621094 70.789062 C 271.621094 70.457031 271.652344 70.128906 271.71875 69.804688 C 271.78125 69.480469 271.878906 69.164062 272.003906 68.859375 C 272.132812 68.550781 272.289062 68.261719 272.472656 67.984375 C 272.65625 67.710938 272.863281 67.457031 273.097656 67.222656 C 273.332031 66.988281 273.589844 66.777344 273.863281 66.59375 C 274.140625 66.410156 274.429688 66.253906 274.738281 66.128906 C 275.042969 66 275.359375 65.90625 275.683594 65.839844 C 276.007812 65.777344 276.339844 65.742188 276.667969 65.742188 Z M 276.667969 65.742188 " fill-opacity="1" fill-rule="nonzero"/><path stroke-linecap="round" transform="matrix(0.721257, 0, 0, 0.720884, 16.577273, 3.858434)" fill="none" stroke-linejoin="round" d="M 357.845638 90.081721 L 383.300347 106.830912 L 408.749639 90.081721 " stroke="#1c2e3f" stroke-width="1" stroke-opacity="1" stroke-miterlimit="4"/><path stroke-linecap="round" transform="matrix(0.721257, 0, 0, 0.720884, 16.577273, 3.858434)" fill="none" stroke-linejoin="round" d="M 392.631934 104.13782 L 399.369308 111.360943 " stroke="#1c2e3f" stroke-width="1" stroke-opacity="1" stroke-miterlimit="4"/><path stroke-linecap="round" transform="matrix(0.721257, 0, 0, 0.720884, 16.577273, 3.858434)" fill="none" stroke-linejoin="round" d="M 373.963343 104.13782 L 367.220553 111.360943 " stroke="#1c2e3f" stroke-width="1" stroke-opacity="1" stroke-miterlimit="4"/><path stroke-linecap="butt" transform="matrix(0.721257, 0, 0, 0.720884, 16.577273, 3.858434)" fill-opacity="1" fill="#1996f2" fill-rule="nonzero" stroke-linejoin="miter" d="M 403.517884 152.364222 L 461.733344 152.364222 C 462.193695 152.364222 462.64863 152.407571 463.09815 152.499689 C 463.553085 152.586388 463.986356 152.721856 464.414212 152.895254 C 464.836652 153.074071 465.242844 153.2854 465.621957 153.540079 C 466.006485 153.800176 466.358519 154.087367 466.683472 154.412489 C 467.008426 154.737611 467.300884 155.089826 467.555432 155.474554 C 467.809979 155.853862 468.026614 156.260265 468.199923 156.682923 C 468.378648 157.111 468.508629 157.544496 468.600699 157.999666 C 468.687354 158.449418 468.736097 158.904589 468.736097 159.365178 L 468.736097 191.270465 C 468.736097 191.725635 468.687354 192.180806 468.600699 192.635976 C 468.508629 193.085728 468.378648 193.524642 468.199923 193.947301 C 468.026614 194.369959 467.809979 194.776361 467.555432 195.15567 C 467.300884 195.540398 467.008426 195.892613 466.683472 196.217735 C 466.358519 196.542857 466.006485 196.835466 465.621957 197.090145 C 465.242844 197.344824 464.836652 197.561572 464.414212 197.73497 C 463.986356 197.908368 463.553085 198.043836 463.09815 198.135953 C 462.64863 198.222653 462.193695 198.266002 461.733344 198.266002 L 403.517884 198.266002 C 403.057533 198.266002 402.602598 198.222653 402.153079 198.135953 C 401.703559 198.043836 401.264872 197.908368 400.842432 197.73497 C 400.414576 197.561572 400.0138 197.344824 399.629271 197.090145 C 399.250159 196.835466 398.89271 196.542857 398.567756 196.217735 C 398.242802 195.892613 397.95576 195.540398 397.701213 195.15567 C 397.44125 194.776361 397.23003 194.369959 397.051305 193.947301 C 396.877996 193.524642 396.742599 193.085728 396.655945 192.635976 C 396.563875 192.180806 396.520547 191.725635 396.520547 191.270465 L 396.520547 159.365178 C 396.520547 158.904589 396.563875 158.449418 396.655945 157.999666 C 396.742599 157.544496 396.877996 157.111 397.051305 156.682923 C 397.23003 156.260265 397.44125 155.853862 397.701213 155.474554 C 397.95576 155.089826 398.242802 154.737611 398.567756 154.412489 C 398.89271 154.087367 399.250159 153.800176 399.629271 153.540079 C 400.0138 153.2854 400.414576 153.074071 400.842432 152.895254 C 401.264872 152.721856 401.703559 152.586388 402.153079 152.499689 C 402.602598 152.407571 403.057533 152.364222 403.517884 152.364222 Z M 403.517884 152.364222 " stroke="#1c2e3f" stroke-width="1" stroke-opacity="1" stroke-miterlimit="10"/><path fill="#ffffff" d="M 325.878906 125.117188 L 324.5625 125.117188 C 324.488281 124.890625 324.394531 124.671875 324.292969 124.460938 L 325.222656 123.53125 C 325.699219 123.054688 325.699219 122.28125 325.222656 121.804688 L 324.351562 120.933594 C 323.875 120.457031 323.101562 120.457031 322.625 120.933594 L 321.691406 121.867188 C 321.480469 121.761719 321.265625 121.671875 321.039062 121.59375 L 321.039062 120.277344 C 321.039062 119.601562 320.492188 119.058594 319.816406 119.058594 L 318.585938 119.058594 C 317.910156 119.058594 317.363281 119.601562 317.363281 120.277344 L 317.363281 121.59375 C 317.140625 121.671875 316.921875 121.761719 316.710938 121.867188 L 315.78125 120.933594 C 315.300781 120.457031 314.527344 120.457031 314.050781 120.933594 L 313.179688 121.804688 C 312.703125 122.28125 312.703125 123.054688 313.179688 123.53125 L 314.113281 124.460938 C 314.007812 124.671875 313.917969 124.890625 313.839844 125.117188 L 312.523438 125.117188 C 311.851562 125.117188 311.300781 125.664062 311.300781 126.335938 L 311.300781 127.566406 C 311.300781 128.242188 311.851562 128.789062 312.523438 128.789062 L 313.839844 128.789062 C 313.917969 129.011719 314.007812 129.230469 314.113281 129.441406 L 313.179688 130.375 C 312.703125 130.851562 312.703125 131.625 313.179688 132.101562 L 314.050781 132.96875 C 314.527344 133.445312 315.300781 133.445312 315.78125 132.96875 L 316.710938 132.039062 C 316.921875 132.140625 317.140625 132.234375 317.363281 132.3125 L 317.363281 133.625 C 317.363281 134.300781 317.910156 134.847656 318.585938 134.847656 L 319.816406 134.847656 C 320.492188 134.847656 321.039062 134.300781 321.039062 133.625 L 321.039062 132.3125 C 321.265625 132.234375 321.480469 132.140625 321.691406 132.039062 L 322.625 132.96875 C 323.101562 133.445312 323.875 133.445312 324.351562 132.96875 L 325.222656 132.101562 C 325.699219 131.625 325.699219 130.851562 325.222656 130.375 L 324.292969 129.441406 C 324.394531 129.230469 324.488281 129.011719 324.5625 128.789062 L 325.878906 128.789062 C 326.554688 128.789062 327.101562 128.242188 327.101562 127.566406 L 327.101562 126.335938 C 327.101562 125.664062 326.554688 125.117188 325.878906 125.117188 Z M 319.203125 130.09375 C 317.464844 130.09375 316.058594 128.6875 316.058594 126.953125 C 316.058594 125.214844 317.464844 123.808594 319.203125 123.808594 C 320.9375 123.808594 322.347656 125.214844 322.347656 126.953125 C 322.347656 128.6875 320.9375 130.09375 319.203125 130.09375 Z M 319.203125 130.09375 " fill-opacity="1" fill-rule="nonzero"/><path fill="#ffffff" d="M 344.417969 129.445312 L 342.796875 129.445312 C 342.703125 129.167969 342.589844 128.898438 342.460938 128.640625 L 343.609375 127.492188 C 344.195312 126.90625 344.195312 125.953125 343.609375 125.367188 L 342.535156 124.296875 C 341.949219 123.710938 340.996094 123.710938 340.410156 124.296875 L 339.261719 125.441406 C 339.003906 125.316406 338.734375 125.203125 338.457031 125.109375 L 338.457031 123.488281 C 338.457031 122.65625 337.785156 121.984375 336.953125 121.984375 L 335.4375 121.984375 C 334.605469 121.984375 333.933594 122.65625 333.933594 123.488281 L 333.933594 125.109375 C 333.65625 125.203125 333.390625 125.316406 333.128906 125.441406 L 331.980469 124.296875 C 331.394531 123.710938 330.441406 123.710938 329.855469 124.296875 L 328.78125 125.367188 C 328.195312 125.953125 328.195312 126.90625 328.78125 127.492188 L 329.929688 128.640625 C 329.804688 128.898438 329.691406 129.167969 329.59375 129.445312 L 327.976562 129.445312 C 327.144531 129.445312 326.472656 130.117188 326.472656 130.949219 L 326.472656 132.460938 C 326.472656 133.292969 327.144531 133.964844 327.976562 133.964844 L 329.59375 133.964844 C 329.691406 134.242188 329.804688 134.511719 329.929688 134.769531 L 328.78125 135.917969 C 328.195312 136.503906 328.195312 137.457031 328.78125 138.042969 L 329.855469 139.113281 C 330.441406 139.699219 331.394531 139.699219 331.980469 139.113281 L 333.128906 137.96875 C 333.390625 138.09375 333.65625 138.207031 333.933594 138.300781 L 333.933594 139.921875 C 333.933594 140.75 334.605469 141.425781 335.4375 141.425781 L 336.953125 141.425781 C 337.785156 141.425781 338.457031 140.753906 338.457031 139.921875 L 338.457031 138.300781 C 338.734375 138.207031 339.003906 138.09375 339.261719 137.96875 L 340.410156 139.113281 C 340.996094 139.699219 341.949219 139.699219 342.535156 139.113281 L 343.609375 138.042969 C 344.195312 137.457031 344.195312 136.503906 343.609375 135.917969 L 342.460938 134.769531 C 342.589844 134.511719 342.703125 134.242188 342.796875 133.964844 L 344.417969 133.964844 C 345.246094 133.964844 345.921875 133.292969 345.921875 132.460938 L 345.921875 130.949219 C 345.921875 130.117188 345.246094 129.445312 344.417969 129.445312 Z M 336.195312 135.574219 C 334.058594 135.574219 332.324219 133.839844 332.324219 131.703125 C 332.324219 129.566406 334.058594 127.835938 336.195312 127.835938 C 338.335938 127.835938 340.066406 129.566406 340.066406 131.703125 C 340.066406 133.839844 338.332031 135.574219 336.195312 135.574219 Z M 336.195312 135.574219 " fill-opacity="1" fill-rule="nonzero"/><path stroke-linecap="round" transform="matrix(0.721257, 0, 0, 0.720884, 16.577273, 3.858434)" fill="none" stroke-linejoin="round" d="M 404.162376 125.650046 C 404.162376 125.650046 418.741966 128.608655 417.886255 144.203664 " stroke="#1c2e3f" stroke-width="1" stroke-opacity="1" stroke-miterlimit="4"/><path stroke-linecap="round" transform="matrix(0.721257, 0, 0, 0.720884, 16.577273, 3.858434)" fill="none" stroke-linejoin="round" d="M 436.078247 208.371872 C 436.078247 208.371872 435.049227 220.379704 421.141208 224.232397 " stroke="#1c2e3f" stroke-width="1" stroke-opacity="1" stroke-miterlimit="4"/><path fill="#1c2e3f" d="M 244.171875 123.808594 L 274.492188 123.808594 C 287.476562 123.808594 298.015625 134.34375 298.015625 147.320312 L 298.015625 225.171875 L 221.683594 225.171875 L 221.683594 146.285156 C 221.683594 133.882812 231.757812 123.808594 244.171875 123.808594 Z M 244.171875 123.808594 " fill-opacity="1" fill-rule="nonzero"/><path fill="#1c2e3f" d="M 180.578125 99.109375 C 178.734375 94.378906 175.902344 81.753906 175.800781 76.679688 C 175.632812 68.269531 178.519531 57.53125 186.21875 51.445312 C 198.949219 41.382812 219.988281 40.226562 233.324219 54.339844 C 246.664062 68.453125 241.082031 90.199219 246.753906 95.464844 C 252.421875 100.726562 264.691406 113.917969 260.640625 121.089844 C 260.640625 121.089844 228.925781 154.90625 198.890625 147.65625 C 168.855469 140.410156 168.46875 124.828125 178.230469 120.046875 C 187.140625 115.683594 187.3125 116.359375 180.578125 99.109375 Z M 180.578125 99.109375 " fill-opacity="1" fill-rule="nonzero"/><path fill="#1996f2" d="M 282.503906 195.96875 C 282.8125 202.695312 285.847656 207.910156 290.878906 209.929688 C 282.75 212.386719 273.476562 212.160156 273.476562 212.160156 L 273.476562 225.171875 L 184.589844 225.171875 C 195.15625 214.046875 187.25 170.054688 187.25 170.054688 C 155.882812 218.871094 136.207031 212.855469 124.628906 192.035156 C 120.554688 184.703125 118.515625 178.261719 117.582031 172.992188 C 133.496094 182.515625 139.273438 173.726562 141.167969 168.753906 L 146.273438 174.21875 C 146.273438 174.21875 172.75 132.351562 179.839844 126.265625 C 186.933594 120.179688 197.953125 124.238281 197.953125 124.238281 L 223.707031 129.867188 C 223.707031 129.867188 229.492188 138.355469 234.355469 134.84375 C 239.21875 131.339844 244.082031 111.980469 260.507812 119.386719 C 274.722656 125.789062 296.402344 169.253906 301.6875 190.300781 L 292.230469 185.09375 C 292.230469 185.09375 282.039062 185.785156 282.503906 195.96875 Z M 282.503906 195.96875 " fill-opacity="1" fill-rule="nonzero"/><path stroke-linecap="round" transform="matrix(0.721257, 0, 0, 0.720884, 16.577273, 3.858434)" fill="none" stroke-linejoin="round" d="M 179.81974 236.32151 L 188.062733 244.769258 " stroke="#1c2e3f" stroke-width="1" stroke-opacity="1" stroke-miterlimit="4"/><path stroke-linecap="round" transform="matrix(0.721257, 0, 0, 0.720884, 16.577273, 3.858434)" fill="none" stroke-linejoin="round" d="M 356.182958 288.953312 C 356.182958 288.953312 345.914421 210.447233 323.768824 190.16505 " stroke="#1c2e3f" stroke-width="1" stroke-opacity="1" stroke-miterlimit="4"/><path stroke-linecap="round" transform="matrix(0.721257, 0, 0, 0.720884, 16.577273, 3.858434)" fill="none" stroke-linejoin="round" d="M 231.898991 180.151299 L 238.939655 192.029082 C 238.939655 192.029082 229.407679 196.201479 228.530304 207.434437 C 227.522947 220.336354 236.632483 227.651595 236.632483 227.651595 " stroke="#1c2e3f" stroke-width="1" stroke-opacity="1" stroke-miterlimit="4"/><path stroke-linecap="round" transform="matrix(0.721257, 0, 0, 0.720884, 16.577273, 3.858434)" fill="none" stroke-linejoin="round" d="M 366.911847 254.772172 C 366.911847 254.772172 359.82244 254.723404 357.531516 268.633199 " stroke="#1c2e3f" stroke-width="1" stroke-opacity="1" stroke-miterlimit="4"/><path fill="#ffc5bd" d="M 226.371094 100.066406 C 224.570312 103.539062 219.933594 113.515625 220.941406 122.308594 L 212.058594 129.867188 L 199.460938 121.699219 L 199.460938 109.664062 L 226.371094 97.519531 Z M 226.371094 100.066406 " fill-opacity="1" fill-rule="nonzero"/><path fill="#ffffff" d="M 224.3125 130.644531 L 223.117188 132.640625 C 221.632812 135.113281 218.253906 135.59375 216.140625 133.640625 L 212.058594 129.867188 L 208.125 133.46875 C 205.9375 135.472656 202.445312 134.875 201.050781 132.25 L 195.933594 122.621094 L 199.460938 121.699219 L 211.898438 127.558594 L 220.855469 121.449219 C 221.074219 124.464844 221.914062 127.371094 223.707031 129.867188 C 223.910156 130.148438 224.113281 130.410156 224.3125 130.644531 Z M 224.3125 130.644531 " fill-opacity="1" fill-rule="nonzero"/><path fill="#ffc5bd" d="M 183.808594 87.464844 C 183.808594 87.464844 181.839844 84.214844 178.484375 84.910156 C 175.128906 85.601562 175.359375 95.203125 179.640625 98.445312 C 183.925781 101.683594 187.859375 100.179688 187.859375 100.179688 Z M 183.808594 87.464844 " fill-opacity="1" fill-rule="nonzero"/><path stroke-linecap="round" transform="matrix(0.721257, 0, 0, 0.720884, 16.577273, 3.858434)" fill="none" stroke-linejoin="round" d="M 223.677661 119.331846 C 223.677661 119.331846 230.902466 115.755506 232.749286 127.492403 " stroke="#1c2e3f" stroke-width="1" stroke-opacity="1" stroke-miterlimit="4"/><path stroke-linecap="round" transform="matrix(0.721257, 0, 0, 0.720884, 16.577273, 3.858434)" fill="none" stroke-linejoin="round" d="M 229.375183 122.220011 L 227.208825 127.492403 L 230.257974 129.074663 " stroke="#1c2e3f" stroke-width="1" stroke-opacity="1" stroke-miterlimit="4"/><path fill="#ffc5bd" d="M 195.582031 62.003906 C 195.582031 62.003906 182.617188 71.140625 182.039062 84.214844 C 182.039062 84.214844 182.847656 107.707031 195.582031 112.09375 C 209.355469 116.835938 226.023438 99.832031 226.023438 99.832031 C 226.023438 99.832031 234.746094 99.910156 237.136719 94.394531 C 240.492188 86.644531 232.15625 79.703125 226.371094 86.644531 C 226.371094 86.644531 201.832031 82.246094 195.582031 62.003906 Z M 195.582031 62.003906 " fill-opacity="1" fill-rule="nonzero"/><path stroke-linecap="round" transform="matrix(0.721257, 0, 0, 0.720884, 16.577273, 3.858434)" fill="none" stroke-linejoin="round" d="M 256.69296 151.264226 C 273.514731 150.359304 290.390661 133.133267 290.390661 133.133267 " stroke="#1c2e3f" stroke-width="1" stroke-opacity="1" stroke-miterlimit="4"/><path stroke-linecap="round" transform="matrix(0.721257, 0, 0, 0.720884, 16.577273, 3.858434)" fill="none" stroke-linejoin="round" d="M 259.579632 137.143102 C 259.579632 137.143102 265.195916 140.35639 272.577781 132.970706 " stroke="#1c2e3f" stroke-width="1" stroke-opacity="1" stroke-miterlimit="4"/><path stroke-linecap="round" transform="matrix(0.721257, 0, 0, 0.720884, 16.577273, 3.858434)" fill="none" stroke-linejoin="round" d="M 291.836705 129.925398 C 291.836705 129.925398 292.957795 117.614119 298.893617 115.977673 C 304.834854 114.346645 303.069272 122.951535 303.069272 122.951535 " stroke="#1c2e3f" stroke-width="1" stroke-opacity="1" stroke-miterlimit="4"/><path stroke-linecap="round" transform="matrix(0.721257, 0, 0, 0.720884, 16.577273, 3.858434)" fill="none" stroke-linejoin="round" d="M 296.808497 119.331846 L 299.21857 125.108177 L 294.403839 128.158903 " stroke="#1c2e3f" stroke-width="1" stroke-opacity="1" stroke-miterlimit="4"/><path stroke-linecap="round" transform="matrix(0.721257, 0, 0, 0.720884, 16.577273, 3.858434)" fill="none" stroke-linejoin="round" d="M 250.432185 119.331846 L 248.666603 132.970706 L 254.282886 131.366772 " stroke="#1c2e3f" stroke-width="1" stroke-opacity="1" stroke-miterlimit="4"/><path stroke-linecap="round" transform="matrix(0.721257, 0, 0, 0.720884, 16.577273, 3.858434)" fill="none" stroke-linejoin="round" d="M 277.874527 118.486529 C 277.874527 119.180122 277.80412 119.868297 277.668723 120.551053 C 277.533325 121.233809 277.332937 121.89489 277.067558 122.539714 C 276.802179 123.179121 276.47181 123.791433 276.087281 124.371234 C 275.702753 124.945616 275.264065 125.482067 274.771219 125.975168 C 274.278372 126.46827 273.742198 126.907184 273.168114 127.291912 C 272.588613 127.676639 271.976617 128.001761 271.337541 128.267277 C 270.693049 128.538212 270.03231 128.738704 269.349907 128.874171 C 268.667504 129.009638 267.979686 129.074663 267.281035 129.074663 C 266.587801 129.074663 265.899982 129.009638 265.217579 128.874171 C 264.535176 128.738704 263.869021 128.538212 263.229945 128.267277 C 262.585454 128.001761 261.978874 127.676639 261.399373 127.291912 C 260.819872 126.907184 260.283698 126.46827 259.790852 125.975168 C 259.303421 125.482067 258.864734 124.945616 258.474789 124.371234 C 258.090261 123.791433 257.765307 123.179121 257.494512 122.539714 C 257.229133 121.89489 257.028745 121.233809 256.893348 120.551053 C 256.75795 119.868297 256.69296 119.180122 256.69296 118.486529 C 256.69296 117.787517 256.75795 117.099343 256.893348 116.416587 C 257.028745 115.73925 257.229133 115.07275 257.494512 114.433344 C 257.765307 113.788519 258.090261 113.181625 258.474789 112.601825 C 258.864734 112.022024 259.303421 111.485573 259.790852 110.99789 C 260.283698 110.504789 260.819872 110.065874 261.399373 109.681147 C 261.978874 109.291001 262.585454 108.965879 263.229945 108.700363 C 263.869021 108.434847 264.535176 108.234355 265.217579 108.098888 C 265.899982 107.96342 266.587801 107.892977 267.281035 107.892977 C 267.979686 107.892977 268.667504 107.96342 269.349907 108.098888 C 270.03231 108.234355 270.693049 108.434847 271.337541 108.700363 C 271.976617 108.965879 272.588613 109.291001 273.168114 109.681147 C 273.742198 110.065874 274.278372 110.504789 274.771219 110.99789 C 275.264065 111.485573 275.702753 112.022024 276.087281 112.601825 C 276.47181 113.181625 276.802179 113.788519 277.067558 114.433344 C 277.332937 115.07275 277.533325 115.73925 277.668723 116.416587 C 277.80412 117.099343 277.874527 117.787517 277.874527 118.486529 Z M 277.874527 118.486529 " stroke="#ffffff" stroke-width="2" stroke-opacity="1" stroke-miterlimit="4"/><path stroke-linecap="round" transform="matrix(0.721257, 0, 0, 0.720884, 16.577273, 3.858434)" fill="none" stroke-linejoin="round" d="M 250.432185 118.486529 C 250.432185 119.180122 250.367194 119.868297 250.237212 120.551053 C 250.107231 121.233809 249.912259 121.89489 249.657712 122.539714 C 249.403164 123.179121 249.089043 123.791433 248.720762 124.371234 C 248.347065 124.945616 247.924625 125.482067 247.453442 125.975168 C 246.982259 126.46827 246.467749 126.907184 245.915328 127.291912 C 245.357491 127.676639 244.772574 128.001761 244.155162 128.267277 C 243.53775 128.538212 242.90409 128.738704 242.248767 128.874171 C 241.593443 129.009638 240.932704 129.074663 240.266549 129.074663 C 239.600394 129.074663 238.939655 129.009638 238.284331 128.874171 C 237.629008 128.738704 236.995348 128.538212 236.377936 128.267277 C 235.760524 128.001761 235.175607 127.676639 234.61777 127.291912 C 234.065349 126.907184 233.550839 126.46827 233.079656 125.975168 C 232.608473 125.482067 232.186033 124.945616 231.817752 124.371234 C 231.444055 123.791433 231.129933 123.179121 230.875386 122.539714 C 230.620839 121.89489 230.425867 121.233809 230.295885 120.551053 C 230.165904 119.868297 230.100913 119.180122 230.100913 118.486529 C 230.100913 117.787517 230.165904 117.099343 230.295885 116.416587 C 230.425867 115.73925 230.620839 115.07275 230.875386 114.433344 C 231.129933 113.788519 231.444055 113.181625 231.817752 112.601825 C 232.186033 112.022024 232.608473 111.485573 233.079656 110.99789 C 233.550839 110.504789 234.065349 110.065874 234.61777 109.681147 C 235.175607 109.291001 235.760524 108.965879 236.377936 108.700363 C 236.995348 108.434847 237.629008 108.234355 238.284331 108.098888 C 238.939655 107.96342 239.600394 107.892977 240.266549 107.892977 C 240.932704 107.892977 241.593443 107.96342 242.248767 108.098888 C 242.90409 108.234355 243.53775 108.434847 244.155162 108.700363 C 244.772574 108.965879 245.357491 109.291001 245.915328 109.681147 C 246.467749 110.065874 246.982259 110.504789 247.453442 110.99789 C 247.924625 111.485573 248.347065 112.022024 248.720762 112.601825 C 249.089043 113.181625 249.403164 113.788519 249.657712 114.433344 C 249.912259 115.07275 250.107231 115.73925 250.237212 116.416587 C 250.367194 117.099343 250.432185 117.787517 250.432185 118.486529 Z M 250.432185 118.486529 " stroke="#ffffff" stroke-width="2" stroke-opacity="1" stroke-miterlimit="4"/><path stroke-linecap="round" transform="matrix(0.721257, 0, 0, 0.720884, 16.577273, 3.858434)" fill="none" stroke-linejoin="round" d="M 277.874527 115.977673 L 290.872676 114.839746 " stroke="#ffffff" stroke-width="1" stroke-opacity="1" stroke-miterlimit="4"/><path stroke-linecap="round" transform="matrix(0.721257, 0, 0, 0.720884, 16.577273, 3.858434)" fill="none" stroke-linejoin="round" d="M 256.687544 118.486529 L 250.432185 118.486529 " stroke="#ffffff" stroke-width="1" stroke-opacity="1" stroke-miterlimit="4"/><path fill="#1c2e3f" d="M 209.972656 91.414062 C 209.972656 91.695312 209.929688 91.96875 209.839844 92.230469 C 209.753906 92.492188 209.628906 92.726562 209.464844 92.925781 C 209.300781 93.125 209.113281 93.28125 208.902344 93.390625 C 208.6875 93.5 208.46875 93.554688 208.238281 93.554688 C 208.007812 93.554688 207.785156 93.5 207.574219 93.390625 C 207.359375 93.28125 207.171875 93.125 207.011719 92.925781 C 206.847656 92.726562 206.722656 92.492188 206.632812 92.230469 C 206.546875 91.96875 206.5 91.695312 206.5 91.414062 C 206.5 91.128906 206.546875 90.855469 206.632812 90.59375 C 206.722656 90.332031 206.847656 90.101562 207.011719 89.898438 C 207.171875 89.699219 207.359375 89.542969 207.574219 89.433594 C 207.785156 89.328125 208.007812 89.273438 208.238281 89.273438 C 208.46875 89.273438 208.6875 89.328125 208.902344 89.433594 C 209.113281 89.542969 209.300781 89.699219 209.464844 89.898438 C 209.628906 90.101562 209.753906 90.332031 209.839844 90.59375 C 209.929688 90.855469 209.972656 91.128906 209.972656 91.414062 Z M 209.972656 91.414062 " fill-opacity="1" fill-rule="nonzero"/><path fill="#1c2e3f" d="M 193.480469 91.414062 C 193.480469 91.695312 193.4375 91.96875 193.347656 92.230469 C 193.257812 92.492188 193.132812 92.726562 192.972656 92.925781 C 192.808594 93.125 192.621094 93.28125 192.40625 93.390625 C 192.195312 93.5 191.972656 93.554688 191.742188 93.554688 C 191.511719 93.554688 191.292969 93.5 191.078125 93.390625 C 190.867188 93.28125 190.679688 93.125 190.515625 92.925781 C 190.351562 92.726562 190.226562 92.492188 190.140625 92.230469 C 190.050781 91.96875 190.007812 91.695312 190.007812 91.414062 C 190.007812 91.128906 190.050781 90.855469 190.140625 90.59375 C 190.226562 90.332031 190.351562 90.101562 190.515625 89.898438 C 190.679688 89.699219 190.867188 89.542969 191.078125 89.433594 C 191.292969 89.328125 191.511719 89.273438 191.742188 89.273438 C 191.972656 89.273438 192.195312 89.328125 192.40625 89.433594 C 192.621094 89.542969 192.808594 89.699219 192.972656 89.898438 C 193.132812 90.101562 193.257812 90.332031 193.347656 90.59375 C 193.4375 90.855469 193.480469 91.128906 193.480469 91.414062 Z M 193.480469 91.414062 " fill-opacity="1" fill-rule="nonzero"/><path stroke-linecap="round" transform="matrix(0.721257, 0, 0, 0.720884, 16.577273, 3.858434)" fill="none" stroke-linejoin="round" d="M 258.404383 106.224018 C 258.404383 106.224018 267.069815 97.77627 273.487651 106.224018 " stroke="#1c2e3f" stroke-width="1" stroke-opacity="1" stroke-miterlimit="4"/><path stroke-linecap="round" transform="matrix(0.721257, 0, 0, 0.720884, 16.577273, 3.858434)" fill="none" stroke-linejoin="round" d="M 245.77993 106.224018 C 245.77993 106.224018 237.325718 98.952127 232.938842 106.224018 " stroke="#1c2e3f" stroke-width="1" stroke-opacity="1" stroke-miterlimit="4"/><path stroke-linecap="butt" transform="matrix(0.721257, 0, 0, 0.720884, 16.577273, 3.858434)" fill-opacity="1" fill="#ffffff" fill-rule="nonzero" stroke-linejoin="miter" d="M 224.251746 212.435894 L 167.200704 218.667396 L 157.592906 167.888788 L 214.643948 161.662705 Z M 224.251746 212.435894 " stroke="#1c2e3f" stroke-width="1" stroke-opacity="1" stroke-miterlimit="10"/><path fill="#ffc5bd" d="M 117.878906 157.558594 L 128.21875 137.546875 L 142.6875 128.867188 C 142.6875 128.867188 148.359375 131.875 139.675781 138.46875 L 152.179688 144.023438 C 152.179688 144.023438 153.21875 149.691406 144.65625 147.148438 L 152.21875 155.824219 C 152.21875 155.824219 151.253906 161.492188 147.085938 158.253906 L 149.632812 160.683594 C 149.632812 160.683594 146.738281 167.855469 138.75 158.601562 L 138.058594 165.425781 L 132.734375 171.441406 C 132.734375 171.441406 120.621094 171.785156 117.878906 157.558594 Z M 117.878906 157.558594 " fill-opacity="1" fill-rule="nonzero"/><path stroke-linecap="round" transform="matrix(0.721257, 0, 0, 0.720884, 16.577273, 3.858434)" fill="none" stroke-linejoin="round" d="M 177.57756 198.769941 C 177.57756 198.769941 174.203457 196.521182 168.430112 198.769941 " stroke="#1c2e3f" stroke-width="1" stroke-opacity="1" stroke-miterlimit="4"/><path stroke-linecap="round" transform="matrix(0.721257, 0, 0, 0.720884, 16.577273, 3.858434)" fill="none" stroke-linejoin="round" d="M 170.672293 186.729597 L 161.849799 193.150752 " stroke="#1c2e3f" stroke-width="1" stroke-opacity="1" stroke-miterlimit="4"/><path stroke-linecap="round" transform="matrix(0.721257, 0, 0, 0.720884, 16.577273, 3.858434)" fill="none" stroke-linejoin="round" d="M 180.946247 214.175296 L 175.649501 208.236404 L 168.430112 205.554149 " stroke="#1c2e3f" stroke-width="1" stroke-opacity="1" stroke-miterlimit="4"/><path fill="#ffffff" d="M 141.167969 168.75 L 141.167969 168.753906 C 139.273438 173.726562 133.496094 182.515625 117.582031 172.992188 C 115.851562 163.289062 117.878906 157.558594 117.878906 157.558594 C 129.652344 173.753906 138.058594 165.425781 138.058594 165.425781 Z M 141.167969 168.75 " fill-opacity="1" fill-rule="nonzero"/><path stroke-linecap="round" transform="matrix(0.721257, 0, 0, 0.720884, 16.577273, 3.858434)" fill="none" stroke-linejoin="round" d="M 140.039989 234.620039 C 137.640747 221.159996 140.451597 213.210768 140.451597 213.210768 " stroke="#1c2e3f" stroke-width="1" stroke-opacity="1" stroke-miterlimit="4"/><path stroke-linecap="round" transform="matrix(0.721257, 0, 0, 0.720884, 16.577273, 3.858434)" fill="none" stroke-linejoin="round" d="M 168.430112 224.124023 L 172.741165 228.735334 L 172.741165 228.740753 " stroke="#1c2e3f" stroke-width="1" stroke-opacity="1" stroke-miterlimit="4"/><path fill="#ffffff" d="M 302.878906 198.28125 C 302.675781 204.605469 297.117188 208.054688 290.878906 209.929688 C 285.847656 207.910156 282.8125 202.695312 282.503906 195.96875 C 282.042969 185.785156 292.230469 185.09375 292.230469 185.09375 L 301.6875 190.300781 C 302.519531 193.582031 302.9375 196.316406 302.878906 198.28125 Z M 302.878906 198.28125 " fill-opacity="1" fill-rule="nonzero"/><path stroke-linecap="round" transform="matrix(0.721257, 0, 0, 0.720884, 16.577273, 3.858434)" fill="none" stroke-linejoin="round" d="M 395.296555 258.630284 C 396.450141 263.18199 397.029642 266.975077 396.948403 269.700682 C 396.785926 274.799676 394.11589 278.549414 390.211029 281.30753 " stroke="#1c2e3f" stroke-width="1" stroke-opacity="1" stroke-miterlimit="4"/><path fill="#ffffff" d="M 260.980469 154.78125 L 301.6875 154.78125 L 301.6875 187.519531 L 260.980469 187.519531 Z M 260.980469 154.78125 " fill-opacity="1" fill-rule="nonzero"/><path stroke-linecap="butt" transform="matrix(0.721257, 0, 0, 0.720884, 16.577273, 3.858434)" fill-opacity="1" fill="#ffffff" fill-rule="nonzero" stroke-linejoin="miter" d="M 338.857509 209.358074 L 395.296555 209.358074 L 395.296555 254.772172 L 338.857509 254.772172 Z M 338.857509 209.358074 " stroke="#1c2e3f" stroke-width="1" stroke-opacity="1" stroke-miterlimit="10"/><path fill="#ffc5bd" d="M 304.574219 173.292969 C 304.574219 173.292969 302.839844 170.59375 296.9375 170.824219 C 291.035156 171.054688 282.273438 173.175781 287.945312 178.152344 C 287.945312 178.152344 283.3125 181.285156 288.808594 185.9375 C 288.808594 185.9375 284.011719 189.140625 288.410156 192.378906 C 288.410156 192.378906 286.441406 194.894531 289.335938 197.511719 C 291.191406 199.191406 296.902344 199.03125 300.761719 198.703125 C 303.117188 198.5 305.101562 196.839844 305.671875 194.546875 C 306.859375 189.792969 308.132812 182.882812 304.574219 173.292969 Z M 304.574219 173.292969 " fill-opacity="1" fill-rule="nonzero"/><path stroke-linecap="round" transform="matrix(0.721257, 0, 0, 0.720884, 16.577273, 3.858434)" fill="none" stroke-linejoin="round" d="M 376.887927 261.513031 L 386.354912 261.513031 " stroke="#1c2e3f" stroke-width="1" stroke-opacity="1" stroke-miterlimit="4"/><path stroke-linecap="round" transform="matrix(0.721257, 0, 0, 0.720884, 16.577273, 3.858434)" fill="none" stroke-linejoin="round" d="M 377.440348 252.5776 L 393.590548 252.5776 " stroke="#1c2e3f" stroke-width="1" stroke-opacity="1" stroke-miterlimit="4"/><path stroke-linecap="round" transform="matrix(0.721257, 0, 0, 0.720884, 16.577273, 3.858434)" fill="none" stroke-linejoin="round" d="M 376.243435 241.772719 L 392.45321 241.772719 " stroke="#1c2e3f" stroke-width="1" stroke-opacity="1" stroke-miterlimit="4"/><path fill="#ffcd5c" d="M 254.105469 167.964844 L 225.683594 167.964844 L 224.316406 174.683594 L 176.8125 174.683594 L 166.375 225.171875 L 242.445312 225.171875 Z M 254.105469 167.964844 " fill-opacity="1" fill-rule="nonzero"/><path fill="#ffffff" d="M 242.445312 225.171875 L 166.375 225.171875 L 169.757812 177.882812 L 245.828125 177.882812 Z M 242.445312 225.171875 " fill-opacity="1" fill-rule="nonzero"/><path stroke-linecap="round" transform="matrix(0.721257, 0, 0, 0.720884, 16.577273, 3.858434)" fill="none" stroke-linejoin="round" d="M 207.689938 307.002991 L 212.380103 241.404247 L 317.849251 241.404247 L 313.159085 307.002991 " stroke="#1c2e3f" stroke-width="1" stroke-opacity="1" stroke-miterlimit="4"/><path fill="#ffffff" d="M 242.445312 225.171875 L 166.375 225.171875 L 160.859375 180.308594 L 236.929688 180.308594 Z M 242.445312 225.171875 " fill-opacity="1" fill-rule="nonzero"/><path stroke-linecap="round" transform="matrix(0.721257, 0, 0, 0.720884, 16.577273, 3.858434)" fill="none" stroke-linejoin="round" d="M 207.689938 307.002991 L 200.042694 244.769258 L 305.511841 244.769258 L 313.159085 307.002991 " stroke="#1c2e3f" stroke-width="1" stroke-opacity="1" stroke-miterlimit="4"/><path fill="#ffcd5c" d="M 242.445312 225.171875 L 166.375 225.171875 L 152.21875 184.863281 L 228.285156 184.863281 Z M 242.445312 225.171875 " fill-opacity="1" fill-rule="nonzero"/><path fill="#1c2e3f" d="M 49.574219 225.171875 C 45.074219 225.171875 41.425781 228.820312 41.425781 233.316406 C 41.425781 275.753906 348.621094 275.753906 348.621094 233.316406 C 348.621094 228.820312 344.972656 225.171875 340.472656 225.171875 Z M 49.574219 225.171875 " fill-opacity="1" fill-rule="nonzero"/><path stroke-linecap="round" transform="matrix(0.721257, 0, 0, 0.720884, 16.577273, 3.858434)" fill="none" stroke-linejoin="round" d="M 390.205613 307.002991 L 356.182958 307.002991 " stroke="#ffffff" stroke-width="1" stroke-opacity="1" stroke-miterlimit="4"/><path fill="#d25455" d="M 169.488281 229.867188 L 107.332031 229.867188 L 96.191406 242.246094 L 141.941406 242.246094 Z M 169.488281 229.867188 " fill-opacity="1" fill-rule="nonzero"/><path fill="#d25455" d="M 141.941406 242.246094 L 71.800781 242.246094 L 51.699219 200.214844 C 51.117188 198.996094 52.003906 197.59375 53.351562 197.59375 L 119.429688 197.59375 C 120.136719 197.59375 120.78125 197.996094 121.085938 198.632812 Z M 141.941406 242.246094 " fill-opacity="1" fill-rule="nonzero"/><path fill="#ffffff" d="M 98.117188 217.480469 C 98.375 217.683594 98.617188 217.902344 98.84375 218.132812 C 99.070312 218.363281 99.277344 218.601562 99.46875 218.847656 C 99.65625 219.097656 99.824219 219.351562 99.96875 219.609375 C 100.109375 219.867188 100.230469 220.121094 100.320312 220.378906 C 100.414062 220.636719 100.480469 220.886719 100.515625 221.132812 C 100.554688 221.378906 100.5625 221.613281 100.546875 221.839844 C 100.527344 222.066406 100.480469 222.277344 100.40625 222.472656 C 100.332031 222.667969 100.234375 222.847656 100.105469 223.007812 C 99.980469 223.167969 99.832031 223.304688 99.65625 223.421875 C 99.484375 223.539062 99.289062 223.632812 99.074219 223.703125 C 98.859375 223.773438 98.625 223.820312 98.378906 223.839844 C 98.128906 223.859375 97.871094 223.855469 97.601562 223.824219 C 97.328125 223.796875 97.050781 223.742188 96.769531 223.660156 C 96.484375 223.582031 96.199219 223.476562 95.914062 223.351562 C 95.628906 223.226562 95.347656 223.078125 95.070312 222.910156 C 94.792969 222.742188 94.527344 222.558594 94.269531 222.355469 C 94.011719 222.152344 93.769531 221.9375 93.542969 221.707031 C 93.3125 221.476562 93.105469 221.238281 92.917969 220.988281 C 92.726562 220.738281 92.5625 220.488281 92.417969 220.230469 C 92.273438 219.972656 92.15625 219.714844 92.0625 219.457031 C 91.972656 219.203125 91.90625 218.949219 91.867188 218.707031 C 91.832031 218.460938 91.820312 218.222656 91.839844 218 C 91.859375 217.773438 91.902344 217.5625 91.976562 217.367188 C 92.050781 217.167969 92.152344 216.992188 92.277344 216.832031 C 92.40625 216.671875 92.554688 216.53125 92.730469 216.414062 C 92.902344 216.296875 93.097656 216.203125 93.3125 216.132812 C 93.527344 216.0625 93.757812 216.019531 94.007812 215.996094 C 94.253906 215.976562 94.515625 215.984375 94.785156 216.011719 C 95.054688 216.042969 95.332031 216.097656 95.617188 216.175781 C 95.902344 216.257812 96.1875 216.359375 96.472656 216.484375 C 96.757812 216.613281 97.039062 216.757812 97.316406 216.925781 C 97.59375 217.09375 97.859375 217.28125 98.117188 217.480469 Z M 98.117188 217.480469 " fill-opacity="1" fill-rule="nonzero"/><path fill="#d25455" d="M 169.488281 231.949219 L 141.941406 242.246094 L 141.097656 240.480469 L 169.488281 229.867188 Z M 169.488281 231.949219 " fill-opacity="1" fill-rule="nonzero"/><path fill="#ffffff" d="M 199.632812 248.179688 L 155.835938 248.179688 L 185.609375 230.902344 L 226.351562 230.902344 Z M 199.632812 248.179688 " fill-opacity="1" fill-rule="nonzero"/><path fill="#ffcd5c" d="M 252.738281 246.019531 L 212.398438 246.019531 L 234.480469 230.902344 L 268.097656 230.902344 Z M 252.738281 246.019531 " fill-opacity="1" fill-rule="nonzero"/><path stroke-linecap="round" transform="matrix(0.721257, 0, 0, 0.720884, 16.577273, 3.858434)" fill="none" stroke-linejoin="round" d="M 276.585544 335.922575 L 310.537792 325.437397 L 323.194739 335.922575 " stroke="#1c2e3f" stroke-width="1" stroke-opacity="1" stroke-miterlimit="4"/><path stroke-linecap="round" transform="matrix(0.721257, 0, 0, 0.720884, 16.577273, 3.858434)" fill="none" stroke-linejoin="round" d="M 313.532782 327.91916 L 330.82032 321.877313 " stroke="#1c2e3f" stroke-width="1" stroke-opacity="1" stroke-miterlimit="4"/><path stroke-linecap="round" transform="matrix(0.721257, 0, 0, 0.720884, 16.577273, 3.858434)" fill="none" stroke-linejoin="round" d="M 302.668496 327.91916 L 297.642545 321.877313 " stroke="#1c2e3f" stroke-width="1" stroke-opacity="1" stroke-miterlimit="4"/></svg>